M48
;DRILL file {KiCad 5.0.2-bee76a0~70~ubuntu18.04.1} date vie 13 sep 2019 20:39:58 CEST
;FORMAT={-:-/ absolute / inch / decimal}
FMAT,2
INCH,TZ
T1C0.0276
T2C0.0315
T3C0.0354
T4C0.0394
T5C0.0400
T6C0.0433
T7C0.1181
T8C0.1200
%
G90
G05
T1
X4.92Y-3.575
X4.92Y-3.875
X5.22Y-3.875
X4.92Y-3.725
X5.22Y-3.725
X6.97Y-4.225
X6.97Y-4.525
X6.32Y-4.725
X6.62Y-4.725
X4.92Y-4.025
X5.22Y-4.025
X5.87Y-4.725
X6.17Y-4.725
X5.22Y-3.575
T2
X4.745Y-3.3
X4.845Y-3.3
X4.945Y-3.3
X5.045Y-3.3
T3
X5.52Y-4.3781
X5.52Y-4.575
X5.7169Y-4.4766
X5.57Y-3.225
X5.57Y-3.325
X5.57Y-3.475
X5.57Y-3.575
X5.57Y-3.975
X5.57Y-4.075
X5.57Y-3.725
X5.57Y-3.825
T4
X6.72Y-3.225
X6.72Y-3.325
X6.72Y-3.425
X6.72Y-3.525
X6.27Y-3.825
X6.37Y-3.825
X6.47Y-3.825
X6.67Y-4.025
X6.77Y-4.025
X6.87Y-4.025
X6.67Y-3.825
X6.77Y-3.825
X6.87Y-3.825
X5.87Y-4.125
X5.97Y-4.125
X6.07Y-4.125
X6.0708Y-3.375
X6.37Y-3.375
X5.87Y-3.825
X5.97Y-3.825
X6.07Y-3.825
X6.27Y-4.025
X6.37Y-4.025
X6.47Y-4.025
X5.87Y-3.975
X5.97Y-3.975
X6.07Y-3.975
X4.47Y-2.975
X4.57Y-2.975
X4.67Y-2.975
X4.77Y-2.975
T5
X5.11Y-2.975
X5.21Y-2.975
X5.31Y-2.975
X5.41Y-2.975
X5.51Y-2.975
X5.61Y-2.975
X5.71Y-2.975
X5.81Y-2.975
X5.91Y-2.975
X6.01Y-2.975
X6.37Y-4.875
X6.47Y-4.875
X6.57Y-4.875
X6.67Y-4.875
X6.77Y-4.875
X6.87Y-4.875
X5.47Y-4.875
X5.57Y-4.875
X5.67Y-4.875
X5.77Y-4.875
X5.87Y-4.875
X5.97Y-4.875
X6.07Y-4.875
X6.17Y-4.875
X6.17Y-2.975
X6.27Y-2.975
X6.37Y-2.975
X6.47Y-2.975
X6.57Y-2.975
X6.67Y-2.975
X6.77Y-2.975
X6.87Y-2.975
T6
X5.87Y-4.3191
X5.87Y-4.575
X6.0472Y-4.3191
X6.0472Y-4.575
X6.57Y-4.3191
X6.57Y-4.575
X6.7472Y-4.3191
X6.7472Y-4.575
X6.22Y-4.3191
X6.22Y-4.575
X6.3972Y-4.3191
X6.3972Y-4.575
T7
X4.495Y-3.25
X5.27Y-3.25
T8
X4.92Y-4.875
X6.97Y-4.675
X4.97Y-2.975
X6.97Y-3.575
T0
M30
