G04 #@! TF.GenerationSoftware,KiCad,Pcbnew,5.0.2-bee76a0~70~ubuntu18.04.1*
G04 #@! TF.CreationDate,2019-09-13T20:40:02+02:00*
G04 #@! TF.ProjectId,BIOS_Shield_1.0_Migration,42494f53-5f53-4686-9965-6c645f312e30,rev?*
G04 #@! TF.SameCoordinates,Original*
G04 #@! TF.FileFunction,Soldermask,Bot*
G04 #@! TF.FilePolarity,Negative*
%FSLAX46Y46*%
G04 Gerber Fmt 4.6, Leading zero omitted, Abs format (unit mm)*
G04 Created by KiCad (PCBNEW 5.0.2-bee76a0~70~ubuntu18.04.1) date vie 13 sep 2019 20:40:02 CEST*
%MOMM*%
%LPD*%
G01*
G04 APERTURE LIST*
%ADD10C,0.100000*%
G04 APERTURE END LIST*
D10*
G36*
X125560712Y-121871088D02*
X125930510Y-122024263D01*
X125930513Y-122024265D01*
X126263325Y-122246643D01*
X126546357Y-122529675D01*
X126730204Y-122804822D01*
X126768737Y-122862490D01*
X126921912Y-123232288D01*
X127000000Y-123624864D01*
X127000000Y-124025136D01*
X126921912Y-124417712D01*
X126768737Y-124787510D01*
X126768735Y-124787513D01*
X126546357Y-125120325D01*
X126263325Y-125403357D01*
X125930513Y-125625735D01*
X125930510Y-125625737D01*
X125560712Y-125778912D01*
X125168136Y-125857000D01*
X124767864Y-125857000D01*
X124375288Y-125778912D01*
X124005490Y-125625737D01*
X124005487Y-125625735D01*
X123672675Y-125403357D01*
X123389643Y-125120325D01*
X123167265Y-124787513D01*
X123167263Y-124787510D01*
X123014088Y-124417712D01*
X122936000Y-124025136D01*
X122936000Y-123624864D01*
X123014088Y-123232288D01*
X123167263Y-122862490D01*
X123205796Y-122804822D01*
X123389643Y-122529675D01*
X123672675Y-122246643D01*
X124005487Y-122024265D01*
X124005490Y-122024263D01*
X124375288Y-121871088D01*
X124767864Y-121793000D01*
X125168136Y-121793000D01*
X125560712Y-121871088D01*
X125560712Y-121871088D01*
G37*
G36*
X139107294Y-122821496D02*
X139227726Y-122858029D01*
X139270087Y-122870879D01*
X139420112Y-122951068D01*
X139551612Y-123058988D01*
X139659532Y-123190488D01*
X139739721Y-123340512D01*
X139752571Y-123382873D01*
X139789104Y-123503305D01*
X139789104Y-123503307D01*
X139801600Y-123630179D01*
X139801600Y-124019820D01*
X139801076Y-124025136D01*
X139789104Y-124146694D01*
X139752571Y-124267128D01*
X139739721Y-124309488D01*
X139659532Y-124459512D01*
X139551612Y-124591012D01*
X139420112Y-124698932D01*
X139270088Y-124779121D01*
X139242433Y-124787510D01*
X139107295Y-124828504D01*
X138994432Y-124839620D01*
X138938001Y-124845178D01*
X138938000Y-124845178D01*
X138768706Y-124828504D01*
X138633568Y-124787510D01*
X138605913Y-124779121D01*
X138455889Y-124698932D01*
X138365946Y-124625117D01*
X138324388Y-124591012D01*
X138216469Y-124459512D01*
X138194127Y-124417713D01*
X138136279Y-124309488D01*
X138123429Y-124267127D01*
X138086896Y-124146695D01*
X138078565Y-124062112D01*
X138074400Y-124019821D01*
X138074400Y-123630180D01*
X138086896Y-123503308D01*
X138086896Y-123503306D01*
X138136278Y-123340517D01*
X138136279Y-123340513D01*
X138216468Y-123190488D01*
X138324388Y-123058988D01*
X138455888Y-122951068D01*
X138605912Y-122870879D01*
X138648273Y-122858029D01*
X138768705Y-122821496D01*
X138881568Y-122810380D01*
X138937999Y-122804822D01*
X138938000Y-122804822D01*
X139107294Y-122821496D01*
X139107294Y-122821496D01*
G37*
G36*
X174667294Y-122821496D02*
X174787726Y-122858029D01*
X174830087Y-122870879D01*
X174980112Y-122951068D01*
X175111612Y-123058988D01*
X175219532Y-123190488D01*
X175299721Y-123340512D01*
X175312571Y-123382873D01*
X175349104Y-123503305D01*
X175349104Y-123503307D01*
X175361600Y-123630179D01*
X175361600Y-124019820D01*
X175361076Y-124025136D01*
X175349104Y-124146694D01*
X175312571Y-124267128D01*
X175299721Y-124309488D01*
X175219532Y-124459512D01*
X175111612Y-124591012D01*
X174980112Y-124698932D01*
X174830088Y-124779121D01*
X174802433Y-124787510D01*
X174667295Y-124828504D01*
X174554432Y-124839620D01*
X174498001Y-124845178D01*
X174498000Y-124845178D01*
X174328706Y-124828504D01*
X174193568Y-124787510D01*
X174165913Y-124779121D01*
X174015889Y-124698932D01*
X173925946Y-124625117D01*
X173884388Y-124591012D01*
X173776469Y-124459512D01*
X173754127Y-124417713D01*
X173696279Y-124309488D01*
X173683429Y-124267127D01*
X173646896Y-124146695D01*
X173638565Y-124062112D01*
X173634400Y-124019821D01*
X173634400Y-123630180D01*
X173646896Y-123503308D01*
X173646896Y-123503306D01*
X173696278Y-123340517D01*
X173696279Y-123340513D01*
X173776468Y-123190488D01*
X173884388Y-123058988D01*
X174015888Y-122951068D01*
X174165912Y-122870879D01*
X174208273Y-122858029D01*
X174328705Y-122821496D01*
X174441568Y-122810380D01*
X174497999Y-122804822D01*
X174498000Y-122804822D01*
X174667294Y-122821496D01*
X174667294Y-122821496D01*
G37*
G36*
X172127294Y-122821496D02*
X172247726Y-122858029D01*
X172290087Y-122870879D01*
X172440112Y-122951068D01*
X172571612Y-123058988D01*
X172679532Y-123190488D01*
X172759721Y-123340512D01*
X172772571Y-123382873D01*
X172809104Y-123503305D01*
X172809104Y-123503307D01*
X172821600Y-123630179D01*
X172821600Y-124019820D01*
X172821076Y-124025136D01*
X172809104Y-124146694D01*
X172772571Y-124267128D01*
X172759721Y-124309488D01*
X172679532Y-124459512D01*
X172571612Y-124591012D01*
X172440112Y-124698932D01*
X172290088Y-124779121D01*
X172262433Y-124787510D01*
X172127295Y-124828504D01*
X172014432Y-124839620D01*
X171958001Y-124845178D01*
X171958000Y-124845178D01*
X171788706Y-124828504D01*
X171653568Y-124787510D01*
X171625913Y-124779121D01*
X171475889Y-124698932D01*
X171385946Y-124625117D01*
X171344388Y-124591012D01*
X171236469Y-124459512D01*
X171214127Y-124417713D01*
X171156279Y-124309488D01*
X171143429Y-124267127D01*
X171106896Y-124146695D01*
X171098565Y-124062112D01*
X171094400Y-124019821D01*
X171094400Y-123630180D01*
X171106896Y-123503308D01*
X171106896Y-123503306D01*
X171156278Y-123340517D01*
X171156279Y-123340513D01*
X171236468Y-123190488D01*
X171344388Y-123058988D01*
X171475888Y-122951068D01*
X171625912Y-122870879D01*
X171668273Y-122858029D01*
X171788705Y-122821496D01*
X171901568Y-122810380D01*
X171957999Y-122804822D01*
X171958000Y-122804822D01*
X172127294Y-122821496D01*
X172127294Y-122821496D01*
G37*
G36*
X169587294Y-122821496D02*
X169707726Y-122858029D01*
X169750087Y-122870879D01*
X169900112Y-122951068D01*
X170031612Y-123058988D01*
X170139532Y-123190488D01*
X170219721Y-123340512D01*
X170232571Y-123382873D01*
X170269104Y-123503305D01*
X170269104Y-123503307D01*
X170281600Y-123630179D01*
X170281600Y-124019820D01*
X170281076Y-124025136D01*
X170269104Y-124146694D01*
X170232571Y-124267128D01*
X170219721Y-124309488D01*
X170139532Y-124459512D01*
X170031612Y-124591012D01*
X169900112Y-124698932D01*
X169750088Y-124779121D01*
X169722433Y-124787510D01*
X169587295Y-124828504D01*
X169474432Y-124839620D01*
X169418001Y-124845178D01*
X169418000Y-124845178D01*
X169248706Y-124828504D01*
X169113568Y-124787510D01*
X169085913Y-124779121D01*
X168935889Y-124698932D01*
X168845946Y-124625117D01*
X168804388Y-124591012D01*
X168696469Y-124459512D01*
X168674127Y-124417713D01*
X168616279Y-124309488D01*
X168603429Y-124267127D01*
X168566896Y-124146695D01*
X168558565Y-124062112D01*
X168554400Y-124019821D01*
X168554400Y-123630180D01*
X168566896Y-123503308D01*
X168566896Y-123503306D01*
X168616278Y-123340517D01*
X168616279Y-123340513D01*
X168696468Y-123190488D01*
X168804388Y-123058988D01*
X168935888Y-122951068D01*
X169085912Y-122870879D01*
X169128273Y-122858029D01*
X169248705Y-122821496D01*
X169361568Y-122810380D01*
X169417999Y-122804822D01*
X169418000Y-122804822D01*
X169587294Y-122821496D01*
X169587294Y-122821496D01*
G37*
G36*
X167047294Y-122821496D02*
X167167726Y-122858029D01*
X167210087Y-122870879D01*
X167360112Y-122951068D01*
X167491612Y-123058988D01*
X167599532Y-123190488D01*
X167679721Y-123340512D01*
X167692571Y-123382873D01*
X167729104Y-123503305D01*
X167729104Y-123503307D01*
X167741600Y-123630179D01*
X167741600Y-124019820D01*
X167741076Y-124025136D01*
X167729104Y-124146694D01*
X167692571Y-124267128D01*
X167679721Y-124309488D01*
X167599532Y-124459512D01*
X167491612Y-124591012D01*
X167360112Y-124698932D01*
X167210088Y-124779121D01*
X167182433Y-124787510D01*
X167047295Y-124828504D01*
X166934432Y-124839620D01*
X166878001Y-124845178D01*
X166878000Y-124845178D01*
X166708706Y-124828504D01*
X166573568Y-124787510D01*
X166545913Y-124779121D01*
X166395889Y-124698932D01*
X166305946Y-124625117D01*
X166264388Y-124591012D01*
X166156469Y-124459512D01*
X166134127Y-124417713D01*
X166076279Y-124309488D01*
X166063429Y-124267127D01*
X166026896Y-124146695D01*
X166018565Y-124062112D01*
X166014400Y-124019821D01*
X166014400Y-123630180D01*
X166026896Y-123503308D01*
X166026896Y-123503306D01*
X166076278Y-123340517D01*
X166076279Y-123340513D01*
X166156468Y-123190488D01*
X166264388Y-123058988D01*
X166395888Y-122951068D01*
X166545912Y-122870879D01*
X166588273Y-122858029D01*
X166708705Y-122821496D01*
X166821568Y-122810380D01*
X166877999Y-122804822D01*
X166878000Y-122804822D01*
X167047294Y-122821496D01*
X167047294Y-122821496D01*
G37*
G36*
X164507294Y-122821496D02*
X164627726Y-122858029D01*
X164670087Y-122870879D01*
X164820112Y-122951068D01*
X164951612Y-123058988D01*
X165059532Y-123190488D01*
X165139721Y-123340512D01*
X165152571Y-123382873D01*
X165189104Y-123503305D01*
X165189104Y-123503307D01*
X165201600Y-123630179D01*
X165201600Y-124019820D01*
X165201076Y-124025136D01*
X165189104Y-124146694D01*
X165152571Y-124267128D01*
X165139721Y-124309488D01*
X165059532Y-124459512D01*
X164951612Y-124591012D01*
X164820112Y-124698932D01*
X164670088Y-124779121D01*
X164642433Y-124787510D01*
X164507295Y-124828504D01*
X164394432Y-124839620D01*
X164338001Y-124845178D01*
X164338000Y-124845178D01*
X164168706Y-124828504D01*
X164033568Y-124787510D01*
X164005913Y-124779121D01*
X163855889Y-124698932D01*
X163765946Y-124625117D01*
X163724388Y-124591012D01*
X163616469Y-124459512D01*
X163594127Y-124417713D01*
X163536279Y-124309488D01*
X163523429Y-124267127D01*
X163486896Y-124146695D01*
X163478565Y-124062112D01*
X163474400Y-124019821D01*
X163474400Y-123630180D01*
X163486896Y-123503308D01*
X163486896Y-123503306D01*
X163536278Y-123340517D01*
X163536279Y-123340513D01*
X163616468Y-123190488D01*
X163724388Y-123058988D01*
X163855888Y-122951068D01*
X164005912Y-122870879D01*
X164048273Y-122858029D01*
X164168705Y-122821496D01*
X164281568Y-122810380D01*
X164337999Y-122804822D01*
X164338000Y-122804822D01*
X164507294Y-122821496D01*
X164507294Y-122821496D01*
G37*
G36*
X161967294Y-122821496D02*
X162087726Y-122858029D01*
X162130087Y-122870879D01*
X162280112Y-122951068D01*
X162411612Y-123058988D01*
X162519532Y-123190488D01*
X162599721Y-123340512D01*
X162612571Y-123382873D01*
X162649104Y-123503305D01*
X162649104Y-123503307D01*
X162661600Y-123630179D01*
X162661600Y-124019820D01*
X162661076Y-124025136D01*
X162649104Y-124146694D01*
X162612571Y-124267128D01*
X162599721Y-124309488D01*
X162519532Y-124459512D01*
X162411612Y-124591012D01*
X162280112Y-124698932D01*
X162130088Y-124779121D01*
X162102433Y-124787510D01*
X161967295Y-124828504D01*
X161854432Y-124839620D01*
X161798001Y-124845178D01*
X161798000Y-124845178D01*
X161628706Y-124828504D01*
X161493568Y-124787510D01*
X161465913Y-124779121D01*
X161315889Y-124698932D01*
X161225946Y-124625117D01*
X161184388Y-124591012D01*
X161076469Y-124459512D01*
X161054127Y-124417713D01*
X160996279Y-124309488D01*
X160983429Y-124267127D01*
X160946896Y-124146695D01*
X160938565Y-124062112D01*
X160934400Y-124019821D01*
X160934400Y-123630180D01*
X160946896Y-123503308D01*
X160946896Y-123503306D01*
X160996278Y-123340517D01*
X160996279Y-123340513D01*
X161076468Y-123190488D01*
X161184388Y-123058988D01*
X161315888Y-122951068D01*
X161465912Y-122870879D01*
X161508273Y-122858029D01*
X161628705Y-122821496D01*
X161741568Y-122810380D01*
X161797999Y-122804822D01*
X161798000Y-122804822D01*
X161967294Y-122821496D01*
X161967294Y-122821496D01*
G37*
G36*
X154347294Y-122821496D02*
X154467726Y-122858029D01*
X154510087Y-122870879D01*
X154660112Y-122951068D01*
X154791612Y-123058988D01*
X154899532Y-123190488D01*
X154979721Y-123340512D01*
X154992571Y-123382873D01*
X155029104Y-123503305D01*
X155029104Y-123503307D01*
X155041600Y-123630179D01*
X155041600Y-124019820D01*
X155041076Y-124025136D01*
X155029104Y-124146694D01*
X154992571Y-124267128D01*
X154979721Y-124309488D01*
X154899532Y-124459512D01*
X154791612Y-124591012D01*
X154660112Y-124698932D01*
X154510088Y-124779121D01*
X154482433Y-124787510D01*
X154347295Y-124828504D01*
X154234432Y-124839620D01*
X154178001Y-124845178D01*
X154178000Y-124845178D01*
X154008706Y-124828504D01*
X153873568Y-124787510D01*
X153845913Y-124779121D01*
X153695889Y-124698932D01*
X153605946Y-124625117D01*
X153564388Y-124591012D01*
X153456469Y-124459512D01*
X153434127Y-124417713D01*
X153376279Y-124309488D01*
X153363429Y-124267127D01*
X153326896Y-124146695D01*
X153318565Y-124062112D01*
X153314400Y-124019821D01*
X153314400Y-123630180D01*
X153326896Y-123503308D01*
X153326896Y-123503306D01*
X153376278Y-123340517D01*
X153376279Y-123340513D01*
X153456468Y-123190488D01*
X153564388Y-123058988D01*
X153695888Y-122951068D01*
X153845912Y-122870879D01*
X153888273Y-122858029D01*
X154008705Y-122821496D01*
X154121568Y-122810380D01*
X154177999Y-122804822D01*
X154178000Y-122804822D01*
X154347294Y-122821496D01*
X154347294Y-122821496D01*
G37*
G36*
X156887294Y-122821496D02*
X157007726Y-122858029D01*
X157050087Y-122870879D01*
X157200112Y-122951068D01*
X157331612Y-123058988D01*
X157439532Y-123190488D01*
X157519721Y-123340512D01*
X157532571Y-123382873D01*
X157569104Y-123503305D01*
X157569104Y-123503307D01*
X157581600Y-123630179D01*
X157581600Y-124019820D01*
X157581076Y-124025136D01*
X157569104Y-124146694D01*
X157532571Y-124267128D01*
X157519721Y-124309488D01*
X157439532Y-124459512D01*
X157331612Y-124591012D01*
X157200112Y-124698932D01*
X157050088Y-124779121D01*
X157022433Y-124787510D01*
X156887295Y-124828504D01*
X156774432Y-124839620D01*
X156718001Y-124845178D01*
X156718000Y-124845178D01*
X156548706Y-124828504D01*
X156413568Y-124787510D01*
X156385913Y-124779121D01*
X156235889Y-124698932D01*
X156145946Y-124625117D01*
X156104388Y-124591012D01*
X155996469Y-124459512D01*
X155974127Y-124417713D01*
X155916279Y-124309488D01*
X155903429Y-124267127D01*
X155866896Y-124146695D01*
X155858565Y-124062112D01*
X155854400Y-124019821D01*
X155854400Y-123630180D01*
X155866896Y-123503308D01*
X155866896Y-123503306D01*
X155916278Y-123340517D01*
X155916279Y-123340513D01*
X155996468Y-123190488D01*
X156104388Y-123058988D01*
X156235888Y-122951068D01*
X156385912Y-122870879D01*
X156428273Y-122858029D01*
X156548705Y-122821496D01*
X156661568Y-122810380D01*
X156717999Y-122804822D01*
X156718000Y-122804822D01*
X156887294Y-122821496D01*
X156887294Y-122821496D01*
G37*
G36*
X141647294Y-122821496D02*
X141767726Y-122858029D01*
X141810087Y-122870879D01*
X141960112Y-122951068D01*
X142091612Y-123058988D01*
X142199532Y-123190488D01*
X142279721Y-123340512D01*
X142292571Y-123382873D01*
X142329104Y-123503305D01*
X142329104Y-123503307D01*
X142341600Y-123630179D01*
X142341600Y-124019820D01*
X142341076Y-124025136D01*
X142329104Y-124146694D01*
X142292571Y-124267128D01*
X142279721Y-124309488D01*
X142199532Y-124459512D01*
X142091612Y-124591012D01*
X141960112Y-124698932D01*
X141810088Y-124779121D01*
X141782433Y-124787510D01*
X141647295Y-124828504D01*
X141534432Y-124839620D01*
X141478001Y-124845178D01*
X141478000Y-124845178D01*
X141308706Y-124828504D01*
X141173568Y-124787510D01*
X141145913Y-124779121D01*
X140995889Y-124698932D01*
X140905946Y-124625117D01*
X140864388Y-124591012D01*
X140756469Y-124459512D01*
X140734127Y-124417713D01*
X140676279Y-124309488D01*
X140663429Y-124267127D01*
X140626896Y-124146695D01*
X140618565Y-124062112D01*
X140614400Y-124019821D01*
X140614400Y-123630180D01*
X140626896Y-123503308D01*
X140626896Y-123503306D01*
X140676278Y-123340517D01*
X140676279Y-123340513D01*
X140756468Y-123190488D01*
X140864388Y-123058988D01*
X140995888Y-122951068D01*
X141145912Y-122870879D01*
X141188273Y-122858029D01*
X141308705Y-122821496D01*
X141421568Y-122810380D01*
X141477999Y-122804822D01*
X141478000Y-122804822D01*
X141647294Y-122821496D01*
X141647294Y-122821496D01*
G37*
G36*
X144187294Y-122821496D02*
X144307726Y-122858029D01*
X144350087Y-122870879D01*
X144500112Y-122951068D01*
X144631612Y-123058988D01*
X144739532Y-123190488D01*
X144819721Y-123340512D01*
X144832571Y-123382873D01*
X144869104Y-123503305D01*
X144869104Y-123503307D01*
X144881600Y-123630179D01*
X144881600Y-124019820D01*
X144881076Y-124025136D01*
X144869104Y-124146694D01*
X144832571Y-124267128D01*
X144819721Y-124309488D01*
X144739532Y-124459512D01*
X144631612Y-124591012D01*
X144500112Y-124698932D01*
X144350088Y-124779121D01*
X144322433Y-124787510D01*
X144187295Y-124828504D01*
X144074432Y-124839620D01*
X144018001Y-124845178D01*
X144018000Y-124845178D01*
X143848706Y-124828504D01*
X143713568Y-124787510D01*
X143685913Y-124779121D01*
X143535889Y-124698932D01*
X143445946Y-124625117D01*
X143404388Y-124591012D01*
X143296469Y-124459512D01*
X143274127Y-124417713D01*
X143216279Y-124309488D01*
X143203429Y-124267127D01*
X143166896Y-124146695D01*
X143158565Y-124062112D01*
X143154400Y-124019821D01*
X143154400Y-123630180D01*
X143166896Y-123503308D01*
X143166896Y-123503306D01*
X143216278Y-123340517D01*
X143216279Y-123340513D01*
X143296468Y-123190488D01*
X143404388Y-123058988D01*
X143535888Y-122951068D01*
X143685912Y-122870879D01*
X143728273Y-122858029D01*
X143848705Y-122821496D01*
X143961568Y-122810380D01*
X144017999Y-122804822D01*
X144018000Y-122804822D01*
X144187294Y-122821496D01*
X144187294Y-122821496D01*
G37*
G36*
X149267294Y-122821496D02*
X149387726Y-122858029D01*
X149430087Y-122870879D01*
X149580112Y-122951068D01*
X149711612Y-123058988D01*
X149819532Y-123190488D01*
X149899721Y-123340512D01*
X149912571Y-123382873D01*
X149949104Y-123503305D01*
X149949104Y-123503307D01*
X149961600Y-123630179D01*
X149961600Y-124019820D01*
X149961076Y-124025136D01*
X149949104Y-124146694D01*
X149912571Y-124267128D01*
X149899721Y-124309488D01*
X149819532Y-124459512D01*
X149711612Y-124591012D01*
X149580112Y-124698932D01*
X149430088Y-124779121D01*
X149402433Y-124787510D01*
X149267295Y-124828504D01*
X149154432Y-124839620D01*
X149098001Y-124845178D01*
X149098000Y-124845178D01*
X148928706Y-124828504D01*
X148793568Y-124787510D01*
X148765913Y-124779121D01*
X148615889Y-124698932D01*
X148525946Y-124625117D01*
X148484388Y-124591012D01*
X148376469Y-124459512D01*
X148354127Y-124417713D01*
X148296279Y-124309488D01*
X148283429Y-124267127D01*
X148246896Y-124146695D01*
X148238565Y-124062112D01*
X148234400Y-124019821D01*
X148234400Y-123630180D01*
X148246896Y-123503308D01*
X148246896Y-123503306D01*
X148296278Y-123340517D01*
X148296279Y-123340513D01*
X148376468Y-123190488D01*
X148484388Y-123058988D01*
X148615888Y-122951068D01*
X148765912Y-122870879D01*
X148808273Y-122858029D01*
X148928705Y-122821496D01*
X149041568Y-122810380D01*
X149097999Y-122804822D01*
X149098000Y-122804822D01*
X149267294Y-122821496D01*
X149267294Y-122821496D01*
G37*
G36*
X151807294Y-122821496D02*
X151927726Y-122858029D01*
X151970087Y-122870879D01*
X152120112Y-122951068D01*
X152251612Y-123058988D01*
X152359532Y-123190488D01*
X152439721Y-123340512D01*
X152452571Y-123382873D01*
X152489104Y-123503305D01*
X152489104Y-123503307D01*
X152501600Y-123630179D01*
X152501600Y-124019820D01*
X152501076Y-124025136D01*
X152489104Y-124146694D01*
X152452571Y-124267128D01*
X152439721Y-124309488D01*
X152359532Y-124459512D01*
X152251612Y-124591012D01*
X152120112Y-124698932D01*
X151970088Y-124779121D01*
X151942433Y-124787510D01*
X151807295Y-124828504D01*
X151694432Y-124839620D01*
X151638001Y-124845178D01*
X151638000Y-124845178D01*
X151468706Y-124828504D01*
X151333568Y-124787510D01*
X151305913Y-124779121D01*
X151155889Y-124698932D01*
X151065946Y-124625117D01*
X151024388Y-124591012D01*
X150916469Y-124459512D01*
X150894127Y-124417713D01*
X150836279Y-124309488D01*
X150823429Y-124267127D01*
X150786896Y-124146695D01*
X150778565Y-124062112D01*
X150774400Y-124019821D01*
X150774400Y-123630180D01*
X150786896Y-123503308D01*
X150786896Y-123503306D01*
X150836278Y-123340517D01*
X150836279Y-123340513D01*
X150916468Y-123190488D01*
X151024388Y-123058988D01*
X151155888Y-122951068D01*
X151305912Y-122870879D01*
X151348273Y-122858029D01*
X151468705Y-122821496D01*
X151581568Y-122810380D01*
X151637999Y-122804822D01*
X151638000Y-122804822D01*
X151807294Y-122821496D01*
X151807294Y-122821496D01*
G37*
G36*
X146727294Y-122821496D02*
X146847726Y-122858029D01*
X146890087Y-122870879D01*
X147040112Y-122951068D01*
X147171612Y-123058988D01*
X147279532Y-123190488D01*
X147359721Y-123340512D01*
X147372571Y-123382873D01*
X147409104Y-123503305D01*
X147409104Y-123503307D01*
X147421600Y-123630179D01*
X147421600Y-124019820D01*
X147421076Y-124025136D01*
X147409104Y-124146694D01*
X147372571Y-124267128D01*
X147359721Y-124309488D01*
X147279532Y-124459512D01*
X147171612Y-124591012D01*
X147040112Y-124698932D01*
X146890088Y-124779121D01*
X146862433Y-124787510D01*
X146727295Y-124828504D01*
X146614432Y-124839620D01*
X146558001Y-124845178D01*
X146558000Y-124845178D01*
X146388706Y-124828504D01*
X146253568Y-124787510D01*
X146225913Y-124779121D01*
X146075889Y-124698932D01*
X145985946Y-124625117D01*
X145944388Y-124591012D01*
X145836469Y-124459512D01*
X145814127Y-124417713D01*
X145756279Y-124309488D01*
X145743429Y-124267127D01*
X145706896Y-124146695D01*
X145698565Y-124062112D01*
X145694400Y-124019821D01*
X145694400Y-123630180D01*
X145706896Y-123503308D01*
X145706896Y-123503306D01*
X145756278Y-123340517D01*
X145756279Y-123340513D01*
X145836468Y-123190488D01*
X145944388Y-123058988D01*
X146075888Y-122951068D01*
X146225912Y-122870879D01*
X146268273Y-122858029D01*
X146388705Y-122821496D01*
X146501568Y-122810380D01*
X146557999Y-122804822D01*
X146558000Y-122804822D01*
X146727294Y-122821496D01*
X146727294Y-122821496D01*
G37*
G36*
X177630712Y-116791088D02*
X178000510Y-116944263D01*
X178000513Y-116944265D01*
X178333325Y-117166643D01*
X178616357Y-117449675D01*
X178838735Y-117782487D01*
X178838737Y-117782490D01*
X178991912Y-118152288D01*
X179070000Y-118544864D01*
X179070000Y-118945136D01*
X178991912Y-119337712D01*
X178838737Y-119707510D01*
X178838735Y-119707513D01*
X178616357Y-120040325D01*
X178333325Y-120323357D01*
X178050447Y-120512370D01*
X178000510Y-120545737D01*
X177630712Y-120698912D01*
X177238136Y-120777000D01*
X176837864Y-120777000D01*
X176445288Y-120698912D01*
X176075490Y-120545737D01*
X176025553Y-120512370D01*
X175742675Y-120323357D01*
X175459643Y-120040325D01*
X175237265Y-119707513D01*
X175237263Y-119707510D01*
X175084088Y-119337712D01*
X175006000Y-118945136D01*
X175006000Y-118544864D01*
X175084088Y-118152288D01*
X175237263Y-117782490D01*
X175237265Y-117782487D01*
X175459643Y-117449675D01*
X175742675Y-117166643D01*
X176075487Y-116944265D01*
X176075490Y-116944263D01*
X176445288Y-116791088D01*
X176837864Y-116713000D01*
X177238136Y-116713000D01*
X177630712Y-116791088D01*
X177630712Y-116791088D01*
G37*
G36*
X168285224Y-119325128D02*
X168417175Y-119365155D01*
X168538781Y-119430155D01*
X168645370Y-119517630D01*
X168732845Y-119624219D01*
X168797845Y-119745825D01*
X168837872Y-119877776D01*
X168851387Y-120015000D01*
X168837872Y-120152224D01*
X168797845Y-120284175D01*
X168732845Y-120405781D01*
X168645370Y-120512370D01*
X168538781Y-120599845D01*
X168417175Y-120664845D01*
X168285224Y-120704872D01*
X168182390Y-120715000D01*
X168113610Y-120715000D01*
X168010776Y-120704872D01*
X167878825Y-120664845D01*
X167757219Y-120599845D01*
X167650630Y-120512370D01*
X167563155Y-120405781D01*
X167498155Y-120284175D01*
X167458128Y-120152224D01*
X167444613Y-120015000D01*
X167458128Y-119877776D01*
X167498155Y-119745825D01*
X167563155Y-119624219D01*
X167650630Y-119517630D01*
X167757219Y-119430155D01*
X167878825Y-119365155D01*
X168010776Y-119325128D01*
X168113610Y-119315000D01*
X168182390Y-119315000D01*
X168285224Y-119325128D01*
X168285224Y-119325128D01*
G37*
G36*
X156855224Y-119325128D02*
X156987175Y-119365155D01*
X157108781Y-119430155D01*
X157215370Y-119517630D01*
X157302845Y-119624219D01*
X157367845Y-119745825D01*
X157407872Y-119877776D01*
X157421387Y-120015000D01*
X157407872Y-120152224D01*
X157367845Y-120284175D01*
X157302845Y-120405781D01*
X157215370Y-120512370D01*
X157108781Y-120599845D01*
X156987175Y-120664845D01*
X156855224Y-120704872D01*
X156752390Y-120715000D01*
X156683610Y-120715000D01*
X156580776Y-120704872D01*
X156448825Y-120664845D01*
X156327219Y-120599845D01*
X156220630Y-120512370D01*
X156133155Y-120405781D01*
X156068155Y-120284175D01*
X156028128Y-120152224D01*
X156014613Y-120015000D01*
X156028128Y-119877776D01*
X156068155Y-119745825D01*
X156133155Y-119624219D01*
X156220630Y-119517630D01*
X156327219Y-119430155D01*
X156448825Y-119365155D01*
X156580776Y-119325128D01*
X156683610Y-119315000D01*
X156752390Y-119315000D01*
X156855224Y-119325128D01*
X156855224Y-119325128D01*
G37*
G36*
X149302183Y-119341900D02*
X149429574Y-119394668D01*
X149482685Y-119430155D01*
X149544225Y-119471275D01*
X149641725Y-119568775D01*
X149718332Y-119683426D01*
X149771100Y-119810817D01*
X149798000Y-119946055D01*
X149798000Y-120083945D01*
X149771100Y-120219183D01*
X149727950Y-120323354D01*
X149718332Y-120346574D01*
X149641726Y-120461224D01*
X149544224Y-120558726D01*
X149429574Y-120635332D01*
X149302183Y-120688100D01*
X149166945Y-120715000D01*
X149029055Y-120715000D01*
X148893817Y-120688100D01*
X148766426Y-120635332D01*
X148651776Y-120558726D01*
X148554274Y-120461224D01*
X148477668Y-120346574D01*
X148468050Y-120323354D01*
X148424900Y-120219183D01*
X148398000Y-120083945D01*
X148398000Y-119946055D01*
X148424900Y-119810817D01*
X148477668Y-119683426D01*
X148554275Y-119568775D01*
X148651775Y-119471275D01*
X148713316Y-119430155D01*
X148766426Y-119394668D01*
X148893817Y-119341900D01*
X149029055Y-119315000D01*
X149166945Y-119315000D01*
X149302183Y-119341900D01*
X149302183Y-119341900D01*
G37*
G36*
X160732183Y-119341900D02*
X160859574Y-119394668D01*
X160912685Y-119430155D01*
X160974225Y-119471275D01*
X161071725Y-119568775D01*
X161148332Y-119683426D01*
X161201100Y-119810817D01*
X161228000Y-119946055D01*
X161228000Y-120083945D01*
X161201100Y-120219183D01*
X161157950Y-120323354D01*
X161148332Y-120346574D01*
X161071726Y-120461224D01*
X160974224Y-120558726D01*
X160859574Y-120635332D01*
X160732183Y-120688100D01*
X160596945Y-120715000D01*
X160459055Y-120715000D01*
X160323817Y-120688100D01*
X160196426Y-120635332D01*
X160081776Y-120558726D01*
X159984274Y-120461224D01*
X159907668Y-120346574D01*
X159898050Y-120323354D01*
X159854900Y-120219183D01*
X159828000Y-120083945D01*
X159828000Y-119946055D01*
X159854900Y-119810817D01*
X159907668Y-119683426D01*
X159984275Y-119568775D01*
X160081775Y-119471275D01*
X160143316Y-119430155D01*
X160196426Y-119394668D01*
X160323817Y-119341900D01*
X160459055Y-119315000D01*
X160596945Y-119315000D01*
X160732183Y-119341900D01*
X160732183Y-119341900D01*
G37*
G36*
X149273770Y-115220372D02*
X149389689Y-115243429D01*
X149571678Y-115318811D01*
X149735463Y-115428249D01*
X149874751Y-115567537D01*
X149984189Y-115731322D01*
X150059571Y-115913311D01*
X150098000Y-116106509D01*
X150098000Y-116303491D01*
X150059571Y-116496689D01*
X149984189Y-116678678D01*
X149874751Y-116842463D01*
X149735463Y-116981751D01*
X149571678Y-117091189D01*
X149389689Y-117166571D01*
X149273770Y-117189628D01*
X149196493Y-117205000D01*
X148999507Y-117205000D01*
X148922230Y-117189628D01*
X148806311Y-117166571D01*
X148624322Y-117091189D01*
X148460537Y-116981751D01*
X148321249Y-116842463D01*
X148211811Y-116678678D01*
X148136429Y-116496689D01*
X148098000Y-116303491D01*
X148098000Y-116106509D01*
X148136429Y-115913311D01*
X148211811Y-115731322D01*
X148321249Y-115567537D01*
X148460537Y-115428249D01*
X148624322Y-115318811D01*
X148806311Y-115243429D01*
X148922230Y-115220372D01*
X148999507Y-115205000D01*
X149196493Y-115205000D01*
X149273770Y-115220372D01*
X149273770Y-115220372D01*
G37*
G36*
X167053770Y-115220372D02*
X167169689Y-115243429D01*
X167351678Y-115318811D01*
X167515463Y-115428249D01*
X167654751Y-115567537D01*
X167764189Y-115731322D01*
X167839571Y-115913311D01*
X167878000Y-116106509D01*
X167878000Y-116303491D01*
X167839571Y-116496689D01*
X167764189Y-116678678D01*
X167654751Y-116842463D01*
X167515463Y-116981751D01*
X167351678Y-117091189D01*
X167169689Y-117166571D01*
X167053770Y-117189628D01*
X166976493Y-117205000D01*
X166779507Y-117205000D01*
X166702230Y-117189628D01*
X166586311Y-117166571D01*
X166404322Y-117091189D01*
X166240537Y-116981751D01*
X166101249Y-116842463D01*
X165991811Y-116678678D01*
X165916429Y-116496689D01*
X165878000Y-116303491D01*
X165878000Y-116106509D01*
X165916429Y-115913311D01*
X165991811Y-115731322D01*
X166101249Y-115567537D01*
X166240537Y-115428249D01*
X166404322Y-115318811D01*
X166586311Y-115243429D01*
X166702230Y-115220372D01*
X166779507Y-115205000D01*
X166976493Y-115205000D01*
X167053770Y-115220372D01*
X167053770Y-115220372D01*
G37*
G36*
X162663770Y-115220372D02*
X162779689Y-115243429D01*
X162961678Y-115318811D01*
X163125463Y-115428249D01*
X163264751Y-115567537D01*
X163374189Y-115731322D01*
X163449571Y-115913311D01*
X163488000Y-116106509D01*
X163488000Y-116303491D01*
X163449571Y-116496689D01*
X163374189Y-116678678D01*
X163264751Y-116842463D01*
X163125463Y-116981751D01*
X162961678Y-117091189D01*
X162779689Y-117166571D01*
X162663770Y-117189628D01*
X162586493Y-117205000D01*
X162389507Y-117205000D01*
X162312230Y-117189628D01*
X162196311Y-117166571D01*
X162014322Y-117091189D01*
X161850537Y-116981751D01*
X161711249Y-116842463D01*
X161601811Y-116678678D01*
X161526429Y-116496689D01*
X161488000Y-116303491D01*
X161488000Y-116106509D01*
X161526429Y-115913311D01*
X161601811Y-115731322D01*
X161711249Y-115567537D01*
X161850537Y-115428249D01*
X162014322Y-115318811D01*
X162196311Y-115243429D01*
X162312230Y-115220372D01*
X162389507Y-115205000D01*
X162586493Y-115205000D01*
X162663770Y-115220372D01*
X162663770Y-115220372D01*
G37*
G36*
X158163770Y-115220372D02*
X158279689Y-115243429D01*
X158461678Y-115318811D01*
X158625463Y-115428249D01*
X158764751Y-115567537D01*
X158874189Y-115731322D01*
X158949571Y-115913311D01*
X158988000Y-116106509D01*
X158988000Y-116303491D01*
X158949571Y-116496689D01*
X158874189Y-116678678D01*
X158764751Y-116842463D01*
X158625463Y-116981751D01*
X158461678Y-117091189D01*
X158279689Y-117166571D01*
X158163770Y-117189628D01*
X158086493Y-117205000D01*
X157889507Y-117205000D01*
X157812230Y-117189628D01*
X157696311Y-117166571D01*
X157514322Y-117091189D01*
X157350537Y-116981751D01*
X157211249Y-116842463D01*
X157101811Y-116678678D01*
X157026429Y-116496689D01*
X156988000Y-116303491D01*
X156988000Y-116106509D01*
X157026429Y-115913311D01*
X157101811Y-115731322D01*
X157211249Y-115567537D01*
X157350537Y-115428249D01*
X157514322Y-115318811D01*
X157696311Y-115243429D01*
X157812230Y-115220372D01*
X157889507Y-115205000D01*
X158086493Y-115205000D01*
X158163770Y-115220372D01*
X158163770Y-115220372D01*
G37*
G36*
X153773770Y-115220372D02*
X153889689Y-115243429D01*
X154071678Y-115318811D01*
X154235463Y-115428249D01*
X154374751Y-115567537D01*
X154484189Y-115731322D01*
X154559571Y-115913311D01*
X154598000Y-116106509D01*
X154598000Y-116303491D01*
X154559571Y-116496689D01*
X154484189Y-116678678D01*
X154374751Y-116842463D01*
X154235463Y-116981751D01*
X154071678Y-117091189D01*
X153889689Y-117166571D01*
X153773770Y-117189628D01*
X153696493Y-117205000D01*
X153499507Y-117205000D01*
X153422230Y-117189628D01*
X153306311Y-117166571D01*
X153124322Y-117091189D01*
X152960537Y-116981751D01*
X152821249Y-116842463D01*
X152711811Y-116678678D01*
X152636429Y-116496689D01*
X152598000Y-116303491D01*
X152598000Y-116106509D01*
X152636429Y-115913311D01*
X152711811Y-115731322D01*
X152821249Y-115567537D01*
X152960537Y-115428249D01*
X153124322Y-115318811D01*
X153306311Y-115243429D01*
X153422230Y-115220372D01*
X153499507Y-115205000D01*
X153696493Y-115205000D01*
X153773770Y-115220372D01*
X153773770Y-115220372D01*
G37*
G36*
X171553770Y-115220372D02*
X171669689Y-115243429D01*
X171851678Y-115318811D01*
X172015463Y-115428249D01*
X172154751Y-115567537D01*
X172264189Y-115731322D01*
X172339571Y-115913311D01*
X172378000Y-116106509D01*
X172378000Y-116303491D01*
X172339571Y-116496689D01*
X172264189Y-116678678D01*
X172154751Y-116842463D01*
X172015463Y-116981751D01*
X171851678Y-117091189D01*
X171669689Y-117166571D01*
X171553770Y-117189628D01*
X171476493Y-117205000D01*
X171279507Y-117205000D01*
X171202230Y-117189628D01*
X171086311Y-117166571D01*
X170904322Y-117091189D01*
X170740537Y-116981751D01*
X170601249Y-116842463D01*
X170491811Y-116678678D01*
X170416429Y-116496689D01*
X170378000Y-116303491D01*
X170378000Y-116106509D01*
X170416429Y-115913311D01*
X170491811Y-115731322D01*
X170601249Y-115567537D01*
X170740537Y-115428249D01*
X170904322Y-115318811D01*
X171086311Y-115243429D01*
X171202230Y-115220372D01*
X171279507Y-115205000D01*
X171476493Y-115205000D01*
X171553770Y-115220372D01*
X171553770Y-115220372D01*
G37*
G36*
X140444268Y-115426128D02*
X140591679Y-115487187D01*
X140724348Y-115575834D01*
X140837166Y-115688652D01*
X140925813Y-115821321D01*
X140986872Y-115968732D01*
X141018000Y-116125222D01*
X141018000Y-116284778D01*
X140986872Y-116441268D01*
X140925813Y-116588679D01*
X140837166Y-116721348D01*
X140724348Y-116834166D01*
X140591679Y-116922813D01*
X140449398Y-116981747D01*
X140444268Y-116983872D01*
X140287778Y-117015000D01*
X140128222Y-117015000D01*
X139971732Y-116983872D01*
X139966602Y-116981747D01*
X139824321Y-116922813D01*
X139691652Y-116834166D01*
X139578834Y-116721348D01*
X139490187Y-116588679D01*
X139429128Y-116441268D01*
X139398000Y-116284778D01*
X139398000Y-116125222D01*
X139429128Y-115968732D01*
X139490187Y-115821321D01*
X139578834Y-115688652D01*
X139691652Y-115575834D01*
X139824321Y-115487187D01*
X139971732Y-115426128D01*
X140128222Y-115395000D01*
X140287778Y-115395000D01*
X140444268Y-115426128D01*
X140444268Y-115426128D01*
G37*
G36*
X177175224Y-114245128D02*
X177307175Y-114285155D01*
X177428781Y-114350155D01*
X177535370Y-114437630D01*
X177622845Y-114544219D01*
X177687845Y-114665825D01*
X177727872Y-114797776D01*
X177741387Y-114935000D01*
X177727872Y-115072224D01*
X177687845Y-115204175D01*
X177622845Y-115325781D01*
X177535370Y-115432370D01*
X177428781Y-115519845D01*
X177307175Y-115584845D01*
X177175224Y-115624872D01*
X177072390Y-115635000D01*
X177003610Y-115635000D01*
X176900776Y-115624872D01*
X176768825Y-115584845D01*
X176647219Y-115519845D01*
X176540630Y-115432370D01*
X176453155Y-115325781D01*
X176388155Y-115204175D01*
X176348128Y-115072224D01*
X176334613Y-114935000D01*
X176348128Y-114797776D01*
X176388155Y-114665825D01*
X176453155Y-114544219D01*
X176540630Y-114437630D01*
X176647219Y-114350155D01*
X176768825Y-114285155D01*
X176900776Y-114245128D01*
X177003610Y-114235000D01*
X177072390Y-114235000D01*
X177175224Y-114245128D01*
X177175224Y-114245128D01*
G37*
G36*
X145444268Y-112926128D02*
X145591679Y-112987187D01*
X145724348Y-113075834D01*
X145837166Y-113188652D01*
X145925813Y-113321321D01*
X145986872Y-113468732D01*
X146018000Y-113625222D01*
X146018000Y-113784778D01*
X145986872Y-113941268D01*
X145925813Y-114088679D01*
X145837166Y-114221348D01*
X145724348Y-114334166D01*
X145591679Y-114422813D01*
X145444268Y-114483872D01*
X145287778Y-114515000D01*
X145128222Y-114515000D01*
X144971732Y-114483872D01*
X144824321Y-114422813D01*
X144691652Y-114334166D01*
X144578834Y-114221348D01*
X144490187Y-114088679D01*
X144429128Y-113941268D01*
X144398000Y-113784778D01*
X144398000Y-113625222D01*
X144429128Y-113468732D01*
X144490187Y-113321321D01*
X144578834Y-113188652D01*
X144691652Y-113075834D01*
X144824321Y-112987187D01*
X144971732Y-112926128D01*
X145128222Y-112895000D01*
X145287778Y-112895000D01*
X145444268Y-112926128D01*
X145444268Y-112926128D01*
G37*
G36*
X140444268Y-110426128D02*
X140591679Y-110487187D01*
X140724348Y-110575834D01*
X140837166Y-110688652D01*
X140925813Y-110821321D01*
X140986872Y-110968732D01*
X141018000Y-111125222D01*
X141018000Y-111284778D01*
X140986872Y-111441268D01*
X140925813Y-111588679D01*
X140837166Y-111721348D01*
X140724348Y-111834166D01*
X140591679Y-111922813D01*
X140444268Y-111983872D01*
X140287778Y-112015000D01*
X140128222Y-112015000D01*
X139971732Y-111983872D01*
X139824321Y-111922813D01*
X139691652Y-111834166D01*
X139578834Y-111721348D01*
X139490187Y-111588679D01*
X139429128Y-111441268D01*
X139398000Y-111284778D01*
X139398000Y-111125222D01*
X139429128Y-110968732D01*
X139490187Y-110821321D01*
X139578834Y-110688652D01*
X139691652Y-110575834D01*
X139824321Y-110487187D01*
X139971732Y-110426128D01*
X140128222Y-110395000D01*
X140287778Y-110395000D01*
X140444268Y-110426128D01*
X140444268Y-110426128D01*
G37*
G36*
X167053770Y-108720372D02*
X167169689Y-108743429D01*
X167351678Y-108818811D01*
X167515463Y-108928249D01*
X167654751Y-109067537D01*
X167764189Y-109231322D01*
X167839571Y-109413311D01*
X167878000Y-109606509D01*
X167878000Y-109803491D01*
X167839571Y-109996689D01*
X167764189Y-110178678D01*
X167654751Y-110342463D01*
X167515463Y-110481751D01*
X167351678Y-110591189D01*
X167169689Y-110666571D01*
X167058679Y-110688652D01*
X166976493Y-110705000D01*
X166779507Y-110705000D01*
X166697321Y-110688652D01*
X166586311Y-110666571D01*
X166404322Y-110591189D01*
X166240537Y-110481751D01*
X166101249Y-110342463D01*
X165991811Y-110178678D01*
X165916429Y-109996689D01*
X165878000Y-109803491D01*
X165878000Y-109606509D01*
X165916429Y-109413311D01*
X165991811Y-109231322D01*
X166101249Y-109067537D01*
X166240537Y-108928249D01*
X166404322Y-108818811D01*
X166586311Y-108743429D01*
X166702230Y-108720372D01*
X166779507Y-108705000D01*
X166976493Y-108705000D01*
X167053770Y-108720372D01*
X167053770Y-108720372D01*
G37*
G36*
X171553770Y-108720372D02*
X171669689Y-108743429D01*
X171851678Y-108818811D01*
X172015463Y-108928249D01*
X172154751Y-109067537D01*
X172264189Y-109231322D01*
X172339571Y-109413311D01*
X172378000Y-109606509D01*
X172378000Y-109803491D01*
X172339571Y-109996689D01*
X172264189Y-110178678D01*
X172154751Y-110342463D01*
X172015463Y-110481751D01*
X171851678Y-110591189D01*
X171669689Y-110666571D01*
X171558679Y-110688652D01*
X171476493Y-110705000D01*
X171279507Y-110705000D01*
X171197321Y-110688652D01*
X171086311Y-110666571D01*
X170904322Y-110591189D01*
X170740537Y-110481751D01*
X170601249Y-110342463D01*
X170491811Y-110178678D01*
X170416429Y-109996689D01*
X170378000Y-109803491D01*
X170378000Y-109606509D01*
X170416429Y-109413311D01*
X170491811Y-109231322D01*
X170601249Y-109067537D01*
X170740537Y-108928249D01*
X170904322Y-108818811D01*
X171086311Y-108743429D01*
X171202230Y-108720372D01*
X171279507Y-108705000D01*
X171476493Y-108705000D01*
X171553770Y-108720372D01*
X171553770Y-108720372D01*
G37*
G36*
X158163770Y-108720372D02*
X158279689Y-108743429D01*
X158461678Y-108818811D01*
X158625463Y-108928249D01*
X158764751Y-109067537D01*
X158874189Y-109231322D01*
X158949571Y-109413311D01*
X158988000Y-109606509D01*
X158988000Y-109803491D01*
X158949571Y-109996689D01*
X158874189Y-110178678D01*
X158764751Y-110342463D01*
X158625463Y-110481751D01*
X158461678Y-110591189D01*
X158279689Y-110666571D01*
X158168679Y-110688652D01*
X158086493Y-110705000D01*
X157889507Y-110705000D01*
X157807321Y-110688652D01*
X157696311Y-110666571D01*
X157514322Y-110591189D01*
X157350537Y-110481751D01*
X157211249Y-110342463D01*
X157101811Y-110178678D01*
X157026429Y-109996689D01*
X156988000Y-109803491D01*
X156988000Y-109606509D01*
X157026429Y-109413311D01*
X157101811Y-109231322D01*
X157211249Y-109067537D01*
X157350537Y-108928249D01*
X157514322Y-108818811D01*
X157696311Y-108743429D01*
X157812230Y-108720372D01*
X157889507Y-108705000D01*
X158086493Y-108705000D01*
X158163770Y-108720372D01*
X158163770Y-108720372D01*
G37*
G36*
X149273770Y-108720372D02*
X149389689Y-108743429D01*
X149571678Y-108818811D01*
X149735463Y-108928249D01*
X149874751Y-109067537D01*
X149984189Y-109231322D01*
X150059571Y-109413311D01*
X150098000Y-109606509D01*
X150098000Y-109803491D01*
X150059571Y-109996689D01*
X149984189Y-110178678D01*
X149874751Y-110342463D01*
X149735463Y-110481751D01*
X149571678Y-110591189D01*
X149389689Y-110666571D01*
X149278679Y-110688652D01*
X149196493Y-110705000D01*
X148999507Y-110705000D01*
X148917321Y-110688652D01*
X148806311Y-110666571D01*
X148624322Y-110591189D01*
X148460537Y-110481751D01*
X148321249Y-110342463D01*
X148211811Y-110178678D01*
X148136429Y-109996689D01*
X148098000Y-109803491D01*
X148098000Y-109606509D01*
X148136429Y-109413311D01*
X148211811Y-109231322D01*
X148321249Y-109067537D01*
X148460537Y-108928249D01*
X148624322Y-108818811D01*
X148806311Y-108743429D01*
X148922230Y-108720372D01*
X148999507Y-108705000D01*
X149196493Y-108705000D01*
X149273770Y-108720372D01*
X149273770Y-108720372D01*
G37*
G36*
X153773770Y-108720372D02*
X153889689Y-108743429D01*
X154071678Y-108818811D01*
X154235463Y-108928249D01*
X154374751Y-109067537D01*
X154484189Y-109231322D01*
X154559571Y-109413311D01*
X154598000Y-109606509D01*
X154598000Y-109803491D01*
X154559571Y-109996689D01*
X154484189Y-110178678D01*
X154374751Y-110342463D01*
X154235463Y-110481751D01*
X154071678Y-110591189D01*
X153889689Y-110666571D01*
X153778679Y-110688652D01*
X153696493Y-110705000D01*
X153499507Y-110705000D01*
X153417321Y-110688652D01*
X153306311Y-110666571D01*
X153124322Y-110591189D01*
X152960537Y-110481751D01*
X152821249Y-110342463D01*
X152711811Y-110178678D01*
X152636429Y-109996689D01*
X152598000Y-109803491D01*
X152598000Y-109606509D01*
X152636429Y-109413311D01*
X152711811Y-109231322D01*
X152821249Y-109067537D01*
X152960537Y-108928249D01*
X153124322Y-108818811D01*
X153306311Y-108743429D01*
X153422230Y-108720372D01*
X153499507Y-108705000D01*
X153696493Y-108705000D01*
X153773770Y-108720372D01*
X153773770Y-108720372D01*
G37*
G36*
X162663770Y-108720372D02*
X162779689Y-108743429D01*
X162961678Y-108818811D01*
X163125463Y-108928249D01*
X163264751Y-109067537D01*
X163374189Y-109231322D01*
X163449571Y-109413311D01*
X163488000Y-109606509D01*
X163488000Y-109803491D01*
X163449571Y-109996689D01*
X163374189Y-110178678D01*
X163264751Y-110342463D01*
X163125463Y-110481751D01*
X162961678Y-110591189D01*
X162779689Y-110666571D01*
X162668679Y-110688652D01*
X162586493Y-110705000D01*
X162389507Y-110705000D01*
X162307321Y-110688652D01*
X162196311Y-110666571D01*
X162014322Y-110591189D01*
X161850537Y-110481751D01*
X161711249Y-110342463D01*
X161601811Y-110178678D01*
X161526429Y-109996689D01*
X161488000Y-109803491D01*
X161488000Y-109606509D01*
X161526429Y-109413311D01*
X161601811Y-109231322D01*
X161711249Y-109067537D01*
X161850537Y-108928249D01*
X162014322Y-108818811D01*
X162196311Y-108743429D01*
X162312230Y-108720372D01*
X162389507Y-108705000D01*
X162586493Y-108705000D01*
X162663770Y-108720372D01*
X162663770Y-108720372D01*
G37*
G36*
X177242183Y-106641900D02*
X177369574Y-106694668D01*
X177484225Y-106771275D01*
X177581725Y-106868775D01*
X177658332Y-106983426D01*
X177711100Y-107110817D01*
X177738000Y-107246055D01*
X177738000Y-107383945D01*
X177711100Y-107519183D01*
X177658332Y-107646574D01*
X177581725Y-107761225D01*
X177484225Y-107858725D01*
X177369574Y-107935332D01*
X177242183Y-107988100D01*
X177106945Y-108015000D01*
X176969055Y-108015000D01*
X176833817Y-107988100D01*
X176706426Y-107935332D01*
X176591775Y-107858725D01*
X176494275Y-107761225D01*
X176417668Y-107646574D01*
X176364900Y-107519183D01*
X176338000Y-107383945D01*
X176338000Y-107246055D01*
X176364900Y-107110817D01*
X176417668Y-106983426D01*
X176494275Y-106868775D01*
X176591775Y-106771275D01*
X176706426Y-106694668D01*
X176833817Y-106641900D01*
X176969055Y-106615000D01*
X177106945Y-106615000D01*
X177242183Y-106641900D01*
X177242183Y-106641900D01*
G37*
G36*
X151804630Y-103937299D02*
X151964855Y-103985903D01*
X152112520Y-104064831D01*
X152241949Y-104171051D01*
X152348169Y-104300480D01*
X152427097Y-104448145D01*
X152475701Y-104608370D01*
X152492112Y-104775000D01*
X152475701Y-104941630D01*
X152427097Y-105101855D01*
X152348169Y-105249520D01*
X152241949Y-105378949D01*
X152112520Y-105485169D01*
X151964855Y-105564097D01*
X151804630Y-105612701D01*
X151679752Y-105625000D01*
X151596248Y-105625000D01*
X151471370Y-105612701D01*
X151311145Y-105564097D01*
X151163480Y-105485169D01*
X151034051Y-105378949D01*
X150927831Y-105249520D01*
X150848903Y-105101855D01*
X150800299Y-104941630D01*
X150783888Y-104775000D01*
X150800299Y-104608370D01*
X150848903Y-104448145D01*
X150927831Y-104300480D01*
X151034051Y-104171051D01*
X151163480Y-104064831D01*
X151311145Y-103985903D01*
X151471370Y-103937299D01*
X151596248Y-103925000D01*
X151679752Y-103925000D01*
X151804630Y-103937299D01*
X151804630Y-103937299D01*
G37*
G36*
X154344630Y-103937299D02*
X154504855Y-103985903D01*
X154652520Y-104064831D01*
X154781949Y-104171051D01*
X154888169Y-104300480D01*
X154967097Y-104448145D01*
X155015701Y-104608370D01*
X155032112Y-104775000D01*
X155015701Y-104941630D01*
X154967097Y-105101855D01*
X154888169Y-105249520D01*
X154781949Y-105378949D01*
X154652520Y-105485169D01*
X154504855Y-105564097D01*
X154344630Y-105612701D01*
X154219752Y-105625000D01*
X154136248Y-105625000D01*
X154011370Y-105612701D01*
X153851145Y-105564097D01*
X153703480Y-105485169D01*
X153574051Y-105378949D01*
X153467831Y-105249520D01*
X153388903Y-105101855D01*
X153340299Y-104941630D01*
X153323888Y-104775000D01*
X153340299Y-104608370D01*
X153388903Y-104448145D01*
X153467831Y-104300480D01*
X153574051Y-104171051D01*
X153703480Y-104064831D01*
X153851145Y-103985903D01*
X154011370Y-103937299D01*
X154136248Y-103925000D01*
X154219752Y-103925000D01*
X154344630Y-103937299D01*
X154344630Y-103937299D01*
G37*
G36*
X149948000Y-105625000D02*
X148248000Y-105625000D01*
X148248000Y-103925000D01*
X149948000Y-103925000D01*
X149948000Y-105625000D01*
X149948000Y-105625000D01*
G37*
G36*
X141740521Y-102639586D02*
X141904309Y-102707429D01*
X142051720Y-102805926D01*
X142177074Y-102931280D01*
X142275571Y-103078691D01*
X142343414Y-103242479D01*
X142378000Y-103416356D01*
X142378000Y-103593644D01*
X142343414Y-103767521D01*
X142275571Y-103931309D01*
X142177074Y-104078720D01*
X142051720Y-104204074D01*
X141904309Y-104302571D01*
X141740521Y-104370414D01*
X141566644Y-104405000D01*
X141389356Y-104405000D01*
X141215479Y-104370414D01*
X141051691Y-104302571D01*
X140904280Y-104204074D01*
X140778926Y-104078720D01*
X140680429Y-103931309D01*
X140612586Y-103767521D01*
X140578000Y-103593644D01*
X140578000Y-103416356D01*
X140612586Y-103242479D01*
X140680429Y-103078691D01*
X140778926Y-102931280D01*
X140904280Y-102805926D01*
X141051691Y-102707429D01*
X141215479Y-102639586D01*
X141389356Y-102605000D01*
X141566644Y-102605000D01*
X141740521Y-102639586D01*
X141740521Y-102639586D01*
G37*
G36*
X170268000Y-103085000D02*
X168568000Y-103085000D01*
X168568000Y-101385000D01*
X170268000Y-101385000D01*
X170268000Y-103085000D01*
X170268000Y-103085000D01*
G37*
G36*
X174664630Y-101397299D02*
X174824855Y-101445903D01*
X174972520Y-101524831D01*
X175101949Y-101631051D01*
X175208169Y-101760480D01*
X175287097Y-101908145D01*
X175335701Y-102068370D01*
X175352112Y-102235000D01*
X175335701Y-102401630D01*
X175287097Y-102561855D01*
X175208169Y-102709520D01*
X175101949Y-102838949D01*
X174972520Y-102945169D01*
X174824855Y-103024097D01*
X174664630Y-103072701D01*
X174539752Y-103085000D01*
X174456248Y-103085000D01*
X174331370Y-103072701D01*
X174171145Y-103024097D01*
X174023480Y-102945169D01*
X173894051Y-102838949D01*
X173787831Y-102709520D01*
X173708903Y-102561855D01*
X173660299Y-102401630D01*
X173643888Y-102235000D01*
X173660299Y-102068370D01*
X173708903Y-101908145D01*
X173787831Y-101760480D01*
X173894051Y-101631051D01*
X174023480Y-101524831D01*
X174171145Y-101445903D01*
X174331370Y-101397299D01*
X174456248Y-101385000D01*
X174539752Y-101385000D01*
X174664630Y-101397299D01*
X174664630Y-101397299D01*
G37*
G36*
X172124630Y-101397299D02*
X172284855Y-101445903D01*
X172432520Y-101524831D01*
X172561949Y-101631051D01*
X172668169Y-101760480D01*
X172747097Y-101908145D01*
X172795701Y-102068370D01*
X172812112Y-102235000D01*
X172795701Y-102401630D01*
X172747097Y-102561855D01*
X172668169Y-102709520D01*
X172561949Y-102838949D01*
X172432520Y-102945169D01*
X172284855Y-103024097D01*
X172124630Y-103072701D01*
X171999752Y-103085000D01*
X171916248Y-103085000D01*
X171791370Y-103072701D01*
X171631145Y-103024097D01*
X171483480Y-102945169D01*
X171354051Y-102838949D01*
X171247831Y-102709520D01*
X171168903Y-102561855D01*
X171120299Y-102401630D01*
X171103888Y-102235000D01*
X171120299Y-102068370D01*
X171168903Y-101908145D01*
X171247831Y-101760480D01*
X171354051Y-101631051D01*
X171483480Y-101524831D01*
X171631145Y-101445903D01*
X171791370Y-101397299D01*
X171916248Y-101385000D01*
X171999752Y-101385000D01*
X172124630Y-101397299D01*
X172124630Y-101397299D01*
G37*
G36*
X164504630Y-101397299D02*
X164664855Y-101445903D01*
X164812520Y-101524831D01*
X164941949Y-101631051D01*
X165048169Y-101760480D01*
X165127097Y-101908145D01*
X165175701Y-102068370D01*
X165192112Y-102235000D01*
X165175701Y-102401630D01*
X165127097Y-102561855D01*
X165048169Y-102709520D01*
X164941949Y-102838949D01*
X164812520Y-102945169D01*
X164664855Y-103024097D01*
X164504630Y-103072701D01*
X164379752Y-103085000D01*
X164296248Y-103085000D01*
X164171370Y-103072701D01*
X164011145Y-103024097D01*
X163863480Y-102945169D01*
X163734051Y-102838949D01*
X163627831Y-102709520D01*
X163548903Y-102561855D01*
X163500299Y-102401630D01*
X163483888Y-102235000D01*
X163500299Y-102068370D01*
X163548903Y-101908145D01*
X163627831Y-101760480D01*
X163734051Y-101631051D01*
X163863480Y-101524831D01*
X164011145Y-101445903D01*
X164171370Y-101397299D01*
X164296248Y-101385000D01*
X164379752Y-101385000D01*
X164504630Y-101397299D01*
X164504630Y-101397299D01*
G37*
G36*
X160108000Y-103085000D02*
X158408000Y-103085000D01*
X158408000Y-101385000D01*
X160108000Y-101385000D01*
X160108000Y-103085000D01*
X160108000Y-103085000D01*
G37*
G36*
X161964630Y-101397299D02*
X162124855Y-101445903D01*
X162272520Y-101524831D01*
X162401949Y-101631051D01*
X162508169Y-101760480D01*
X162587097Y-101908145D01*
X162635701Y-102068370D01*
X162652112Y-102235000D01*
X162635701Y-102401630D01*
X162587097Y-102561855D01*
X162508169Y-102709520D01*
X162401949Y-102838949D01*
X162272520Y-102945169D01*
X162124855Y-103024097D01*
X161964630Y-103072701D01*
X161839752Y-103085000D01*
X161756248Y-103085000D01*
X161631370Y-103072701D01*
X161471145Y-103024097D01*
X161323480Y-102945169D01*
X161194051Y-102838949D01*
X161087831Y-102709520D01*
X161008903Y-102561855D01*
X160960299Y-102401630D01*
X160943888Y-102235000D01*
X160960299Y-102068370D01*
X161008903Y-101908145D01*
X161087831Y-101760480D01*
X161194051Y-101631051D01*
X161323480Y-101524831D01*
X161471145Y-101445903D01*
X161631370Y-101397299D01*
X161756248Y-101385000D01*
X161839752Y-101385000D01*
X161964630Y-101397299D01*
X161964630Y-101397299D01*
G37*
G36*
X132792183Y-101561900D02*
X132919574Y-101614668D01*
X133034224Y-101691274D01*
X133131726Y-101788776D01*
X133141030Y-101802701D01*
X133208332Y-101903426D01*
X133261100Y-102030817D01*
X133288000Y-102166055D01*
X133288000Y-102303945D01*
X133261100Y-102439183D01*
X133210287Y-102561855D01*
X133208332Y-102566574D01*
X133131726Y-102681224D01*
X133034224Y-102778726D01*
X132944095Y-102838948D01*
X132919574Y-102855332D01*
X132792183Y-102908100D01*
X132656945Y-102935000D01*
X132519055Y-102935000D01*
X132383817Y-102908100D01*
X132256426Y-102855332D01*
X132231905Y-102838948D01*
X132141776Y-102778726D01*
X132044274Y-102681224D01*
X131967668Y-102566574D01*
X131965713Y-102561855D01*
X131914900Y-102439183D01*
X131888000Y-102303945D01*
X131888000Y-102166055D01*
X131914900Y-102030817D01*
X131967668Y-101903426D01*
X132034970Y-101802701D01*
X132044274Y-101788776D01*
X132141776Y-101691274D01*
X132256426Y-101614668D01*
X132383817Y-101561900D01*
X132519055Y-101535000D01*
X132656945Y-101535000D01*
X132792183Y-101561900D01*
X132792183Y-101561900D01*
G37*
G36*
X125105224Y-101545128D02*
X125237175Y-101585155D01*
X125358781Y-101650155D01*
X125465370Y-101737630D01*
X125552845Y-101844219D01*
X125617845Y-101965825D01*
X125657872Y-102097776D01*
X125671387Y-102235000D01*
X125657872Y-102372224D01*
X125617845Y-102504175D01*
X125552845Y-102625781D01*
X125465370Y-102732370D01*
X125358781Y-102819845D01*
X125237175Y-102884845D01*
X125105224Y-102924872D01*
X125002390Y-102935000D01*
X124933610Y-102935000D01*
X124830776Y-102924872D01*
X124698825Y-102884845D01*
X124577219Y-102819845D01*
X124470630Y-102732370D01*
X124383155Y-102625781D01*
X124318155Y-102504175D01*
X124278128Y-102372224D01*
X124264613Y-102235000D01*
X124278128Y-102097776D01*
X124318155Y-101965825D01*
X124383155Y-101844219D01*
X124470630Y-101737630D01*
X124577219Y-101650155D01*
X124698825Y-101585155D01*
X124830776Y-101545128D01*
X124933610Y-101535000D01*
X125002390Y-101535000D01*
X125105224Y-101545128D01*
X125105224Y-101545128D01*
G37*
G36*
X142378000Y-101865000D02*
X140578000Y-101865000D01*
X140578000Y-100065000D01*
X142378000Y-100065000D01*
X142378000Y-101865000D01*
X142378000Y-101865000D01*
G37*
G36*
X154344630Y-100127299D02*
X154504855Y-100175903D01*
X154652520Y-100254831D01*
X154781949Y-100361051D01*
X154888169Y-100490480D01*
X154967097Y-100638145D01*
X155015701Y-100798370D01*
X155032112Y-100965000D01*
X155015701Y-101131630D01*
X154967097Y-101291855D01*
X154888169Y-101439520D01*
X154781949Y-101568949D01*
X154652520Y-101675169D01*
X154504855Y-101754097D01*
X154344630Y-101802701D01*
X154219752Y-101815000D01*
X154136248Y-101815000D01*
X154011370Y-101802701D01*
X153851145Y-101754097D01*
X153703480Y-101675169D01*
X153574051Y-101568949D01*
X153467831Y-101439520D01*
X153388903Y-101291855D01*
X153340299Y-101131630D01*
X153323888Y-100965000D01*
X153340299Y-100798370D01*
X153388903Y-100638145D01*
X153467831Y-100490480D01*
X153574051Y-100361051D01*
X153703480Y-100254831D01*
X153851145Y-100175903D01*
X154011370Y-100127299D01*
X154136248Y-100115000D01*
X154219752Y-100115000D01*
X154344630Y-100127299D01*
X154344630Y-100127299D01*
G37*
G36*
X151804630Y-100127299D02*
X151964855Y-100175903D01*
X152112520Y-100254831D01*
X152241949Y-100361051D01*
X152348169Y-100490480D01*
X152427097Y-100638145D01*
X152475701Y-100798370D01*
X152492112Y-100965000D01*
X152475701Y-101131630D01*
X152427097Y-101291855D01*
X152348169Y-101439520D01*
X152241949Y-101568949D01*
X152112520Y-101675169D01*
X151964855Y-101754097D01*
X151804630Y-101802701D01*
X151679752Y-101815000D01*
X151596248Y-101815000D01*
X151471370Y-101802701D01*
X151311145Y-101754097D01*
X151163480Y-101675169D01*
X151034051Y-101568949D01*
X150927831Y-101439520D01*
X150848903Y-101291855D01*
X150800299Y-101131630D01*
X150783888Y-100965000D01*
X150800299Y-100798370D01*
X150848903Y-100638145D01*
X150927831Y-100490480D01*
X151034051Y-100361051D01*
X151163480Y-100254831D01*
X151311145Y-100175903D01*
X151471370Y-100127299D01*
X151596248Y-100115000D01*
X151679752Y-100115000D01*
X151804630Y-100127299D01*
X151804630Y-100127299D01*
G37*
G36*
X149948000Y-101815000D02*
X148248000Y-101815000D01*
X148248000Y-100115000D01*
X149948000Y-100115000D01*
X149948000Y-101815000D01*
X149948000Y-101815000D01*
G37*
G36*
X125105224Y-97735128D02*
X125237175Y-97775155D01*
X125358781Y-97840155D01*
X125465370Y-97927630D01*
X125552845Y-98034219D01*
X125617845Y-98155825D01*
X125657872Y-98287776D01*
X125671387Y-98425000D01*
X125657872Y-98562224D01*
X125617845Y-98694175D01*
X125552845Y-98815781D01*
X125465370Y-98922370D01*
X125358781Y-99009845D01*
X125237175Y-99074845D01*
X125105224Y-99114872D01*
X125002390Y-99125000D01*
X124933610Y-99125000D01*
X124830776Y-99114872D01*
X124698825Y-99074845D01*
X124577219Y-99009845D01*
X124470630Y-98922370D01*
X124383155Y-98815781D01*
X124318155Y-98694175D01*
X124278128Y-98562224D01*
X124264613Y-98425000D01*
X124278128Y-98287776D01*
X124318155Y-98155825D01*
X124383155Y-98034219D01*
X124470630Y-97927630D01*
X124577219Y-97840155D01*
X124698825Y-97775155D01*
X124830776Y-97735128D01*
X124933610Y-97725000D01*
X125002390Y-97725000D01*
X125105224Y-97735128D01*
X125105224Y-97735128D01*
G37*
G36*
X132792183Y-97751900D02*
X132919574Y-97804668D01*
X133034224Y-97881274D01*
X133131726Y-97978776D01*
X133141030Y-97992701D01*
X133208332Y-98093426D01*
X133261100Y-98220817D01*
X133288000Y-98356055D01*
X133288000Y-98493945D01*
X133261100Y-98629183D01*
X133208332Y-98756574D01*
X133131726Y-98871224D01*
X133034224Y-98968726D01*
X132919574Y-99045332D01*
X132792183Y-99098100D01*
X132656945Y-99125000D01*
X132519055Y-99125000D01*
X132383817Y-99098100D01*
X132256426Y-99045332D01*
X132141776Y-98968726D01*
X132044274Y-98871224D01*
X131967668Y-98756574D01*
X131914900Y-98629183D01*
X131888000Y-98493945D01*
X131888000Y-98356055D01*
X131914900Y-98220817D01*
X131967668Y-98093426D01*
X132034970Y-97992701D01*
X132044274Y-97978776D01*
X132141776Y-97881274D01*
X132256426Y-97804668D01*
X132383817Y-97751900D01*
X132519055Y-97725000D01*
X132656945Y-97725000D01*
X132792183Y-97751900D01*
X132792183Y-97751900D01*
G37*
G36*
X141740521Y-96289586D02*
X141904309Y-96357429D01*
X142051720Y-96455926D01*
X142177074Y-96581280D01*
X142275571Y-96728691D01*
X142343414Y-96892479D01*
X142378000Y-97066356D01*
X142378000Y-97243644D01*
X142343414Y-97417521D01*
X142275571Y-97581309D01*
X142177074Y-97728720D01*
X142051720Y-97854074D01*
X141904309Y-97952571D01*
X141740521Y-98020414D01*
X141566644Y-98055000D01*
X141389356Y-98055000D01*
X141215479Y-98020414D01*
X141051691Y-97952571D01*
X140904280Y-97854074D01*
X140778926Y-97728720D01*
X140680429Y-97581309D01*
X140612586Y-97417521D01*
X140578000Y-97243644D01*
X140578000Y-97066356D01*
X140612586Y-96892479D01*
X140680429Y-96728691D01*
X140778926Y-96581280D01*
X140904280Y-96455926D01*
X141051691Y-96357429D01*
X141215479Y-96289586D01*
X141389356Y-96255000D01*
X141566644Y-96255000D01*
X141740521Y-96289586D01*
X141740521Y-96289586D01*
G37*
G36*
X151804630Y-96317299D02*
X151964855Y-96365903D01*
X152112520Y-96444831D01*
X152241949Y-96551051D01*
X152348169Y-96680480D01*
X152427097Y-96828145D01*
X152475701Y-96988370D01*
X152492112Y-97155000D01*
X152475701Y-97321630D01*
X152427097Y-97481855D01*
X152348169Y-97629520D01*
X152241949Y-97758949D01*
X152112520Y-97865169D01*
X151964855Y-97944097D01*
X151804630Y-97992701D01*
X151679752Y-98005000D01*
X151596248Y-98005000D01*
X151471370Y-97992701D01*
X151311145Y-97944097D01*
X151163480Y-97865169D01*
X151034051Y-97758949D01*
X150927831Y-97629520D01*
X150848903Y-97481855D01*
X150800299Y-97321630D01*
X150783888Y-97155000D01*
X150800299Y-96988370D01*
X150848903Y-96828145D01*
X150927831Y-96680480D01*
X151034051Y-96551051D01*
X151163480Y-96444831D01*
X151311145Y-96365903D01*
X151471370Y-96317299D01*
X151596248Y-96305000D01*
X151679752Y-96305000D01*
X151804630Y-96317299D01*
X151804630Y-96317299D01*
G37*
G36*
X149948000Y-98005000D02*
X148248000Y-98005000D01*
X148248000Y-96305000D01*
X149948000Y-96305000D01*
X149948000Y-98005000D01*
X149948000Y-98005000D01*
G37*
G36*
X164504630Y-96317299D02*
X164664855Y-96365903D01*
X164812520Y-96444831D01*
X164941949Y-96551051D01*
X165048169Y-96680480D01*
X165127097Y-96828145D01*
X165175701Y-96988370D01*
X165192112Y-97155000D01*
X165175701Y-97321630D01*
X165127097Y-97481855D01*
X165048169Y-97629520D01*
X164941949Y-97758949D01*
X164812520Y-97865169D01*
X164664855Y-97944097D01*
X164504630Y-97992701D01*
X164379752Y-98005000D01*
X164296248Y-98005000D01*
X164171370Y-97992701D01*
X164011145Y-97944097D01*
X163863480Y-97865169D01*
X163734051Y-97758949D01*
X163627831Y-97629520D01*
X163548903Y-97481855D01*
X163500299Y-97321630D01*
X163483888Y-97155000D01*
X163500299Y-96988370D01*
X163548903Y-96828145D01*
X163627831Y-96680480D01*
X163734051Y-96551051D01*
X163863480Y-96444831D01*
X164011145Y-96365903D01*
X164171370Y-96317299D01*
X164296248Y-96305000D01*
X164379752Y-96305000D01*
X164504630Y-96317299D01*
X164504630Y-96317299D01*
G37*
G36*
X161964630Y-96317299D02*
X162124855Y-96365903D01*
X162272520Y-96444831D01*
X162401949Y-96551051D01*
X162508169Y-96680480D01*
X162587097Y-96828145D01*
X162635701Y-96988370D01*
X162652112Y-97155000D01*
X162635701Y-97321630D01*
X162587097Y-97481855D01*
X162508169Y-97629520D01*
X162401949Y-97758949D01*
X162272520Y-97865169D01*
X162124855Y-97944097D01*
X161964630Y-97992701D01*
X161839752Y-98005000D01*
X161756248Y-98005000D01*
X161631370Y-97992701D01*
X161471145Y-97944097D01*
X161323480Y-97865169D01*
X161194051Y-97758949D01*
X161087831Y-97629520D01*
X161008903Y-97481855D01*
X160960299Y-97321630D01*
X160943888Y-97155000D01*
X160960299Y-96988370D01*
X161008903Y-96828145D01*
X161087831Y-96680480D01*
X161194051Y-96551051D01*
X161323480Y-96444831D01*
X161471145Y-96365903D01*
X161631370Y-96317299D01*
X161756248Y-96305000D01*
X161839752Y-96305000D01*
X161964630Y-96317299D01*
X161964630Y-96317299D01*
G37*
G36*
X160108000Y-98005000D02*
X158408000Y-98005000D01*
X158408000Y-96305000D01*
X160108000Y-96305000D01*
X160108000Y-98005000D01*
X160108000Y-98005000D01*
G37*
G36*
X172124630Y-96317299D02*
X172284855Y-96365903D01*
X172432520Y-96444831D01*
X172561949Y-96551051D01*
X172668169Y-96680480D01*
X172747097Y-96828145D01*
X172795701Y-96988370D01*
X172812112Y-97155000D01*
X172795701Y-97321630D01*
X172747097Y-97481855D01*
X172668169Y-97629520D01*
X172561949Y-97758949D01*
X172432520Y-97865169D01*
X172284855Y-97944097D01*
X172124630Y-97992701D01*
X171999752Y-98005000D01*
X171916248Y-98005000D01*
X171791370Y-97992701D01*
X171631145Y-97944097D01*
X171483480Y-97865169D01*
X171354051Y-97758949D01*
X171247831Y-97629520D01*
X171168903Y-97481855D01*
X171120299Y-97321630D01*
X171103888Y-97155000D01*
X171120299Y-96988370D01*
X171168903Y-96828145D01*
X171247831Y-96680480D01*
X171354051Y-96551051D01*
X171483480Y-96444831D01*
X171631145Y-96365903D01*
X171791370Y-96317299D01*
X171916248Y-96305000D01*
X171999752Y-96305000D01*
X172124630Y-96317299D01*
X172124630Y-96317299D01*
G37*
G36*
X170268000Y-98005000D02*
X168568000Y-98005000D01*
X168568000Y-96305000D01*
X170268000Y-96305000D01*
X170268000Y-98005000D01*
X170268000Y-98005000D01*
G37*
G36*
X154344630Y-96317299D02*
X154504855Y-96365903D01*
X154652520Y-96444831D01*
X154781949Y-96551051D01*
X154888169Y-96680480D01*
X154967097Y-96828145D01*
X155015701Y-96988370D01*
X155032112Y-97155000D01*
X155015701Y-97321630D01*
X154967097Y-97481855D01*
X154888169Y-97629520D01*
X154781949Y-97758949D01*
X154652520Y-97865169D01*
X154504855Y-97944097D01*
X154344630Y-97992701D01*
X154219752Y-98005000D01*
X154136248Y-98005000D01*
X154011370Y-97992701D01*
X153851145Y-97944097D01*
X153703480Y-97865169D01*
X153574051Y-97758949D01*
X153467831Y-97629520D01*
X153388903Y-97481855D01*
X153340299Y-97321630D01*
X153323888Y-97155000D01*
X153340299Y-96988370D01*
X153388903Y-96828145D01*
X153467831Y-96680480D01*
X153574051Y-96551051D01*
X153703480Y-96444831D01*
X153851145Y-96365903D01*
X154011370Y-96317299D01*
X154136248Y-96305000D01*
X154219752Y-96305000D01*
X154344630Y-96317299D01*
X154344630Y-96317299D01*
G37*
G36*
X174664630Y-96317299D02*
X174824855Y-96365903D01*
X174972520Y-96444831D01*
X175101949Y-96551051D01*
X175208169Y-96680480D01*
X175287097Y-96828145D01*
X175335701Y-96988370D01*
X175352112Y-97155000D01*
X175335701Y-97321630D01*
X175287097Y-97481855D01*
X175208169Y-97629520D01*
X175101949Y-97758949D01*
X174972520Y-97865169D01*
X174824855Y-97944097D01*
X174664630Y-97992701D01*
X174539752Y-98005000D01*
X174456248Y-98005000D01*
X174331370Y-97992701D01*
X174171145Y-97944097D01*
X174023480Y-97865169D01*
X173894051Y-97758949D01*
X173787831Y-97629520D01*
X173708903Y-97481855D01*
X173660299Y-97321630D01*
X173643888Y-97155000D01*
X173660299Y-96988370D01*
X173708903Y-96828145D01*
X173787831Y-96680480D01*
X173894051Y-96551051D01*
X174023480Y-96444831D01*
X174171145Y-96365903D01*
X174331370Y-96317299D01*
X174456248Y-96305000D01*
X174539752Y-96305000D01*
X174664630Y-96317299D01*
X174664630Y-96317299D01*
G37*
G36*
X142378000Y-95515000D02*
X140578000Y-95515000D01*
X140578000Y-93715000D01*
X142378000Y-93715000D01*
X142378000Y-95515000D01*
X142378000Y-95515000D01*
G37*
G36*
X125105224Y-93925128D02*
X125237175Y-93965155D01*
X125358781Y-94030155D01*
X125465370Y-94117630D01*
X125552845Y-94224219D01*
X125617845Y-94345825D01*
X125657872Y-94477776D01*
X125671387Y-94615000D01*
X125657872Y-94752224D01*
X125617845Y-94884175D01*
X125552845Y-95005781D01*
X125465370Y-95112370D01*
X125358781Y-95199845D01*
X125237175Y-95264845D01*
X125105224Y-95304872D01*
X125002390Y-95315000D01*
X124933610Y-95315000D01*
X124830776Y-95304872D01*
X124698825Y-95264845D01*
X124577219Y-95199845D01*
X124470630Y-95112370D01*
X124383155Y-95005781D01*
X124318155Y-94884175D01*
X124278128Y-94752224D01*
X124264613Y-94615000D01*
X124278128Y-94477776D01*
X124318155Y-94345825D01*
X124383155Y-94224219D01*
X124470630Y-94117630D01*
X124577219Y-94030155D01*
X124698825Y-93965155D01*
X124830776Y-93925128D01*
X124933610Y-93915000D01*
X125002390Y-93915000D01*
X125105224Y-93925128D01*
X125105224Y-93925128D01*
G37*
G36*
X132792183Y-93941900D02*
X132919574Y-93994668D01*
X132972685Y-94030155D01*
X133034225Y-94071275D01*
X133131725Y-94168775D01*
X133208332Y-94283426D01*
X133261100Y-94410817D01*
X133288000Y-94546055D01*
X133288000Y-94683945D01*
X133261100Y-94819183D01*
X133208332Y-94946574D01*
X133131726Y-95061224D01*
X133034224Y-95158726D01*
X132919574Y-95235332D01*
X132792183Y-95288100D01*
X132656945Y-95315000D01*
X132519055Y-95315000D01*
X132383817Y-95288100D01*
X132256426Y-95235332D01*
X132141776Y-95158726D01*
X132044274Y-95061224D01*
X131967668Y-94946574D01*
X131914900Y-94819183D01*
X131888000Y-94683945D01*
X131888000Y-94546055D01*
X131914900Y-94410817D01*
X131967668Y-94283426D01*
X132044275Y-94168775D01*
X132141775Y-94071275D01*
X132203316Y-94030155D01*
X132256426Y-93994668D01*
X132383817Y-93941900D01*
X132519055Y-93915000D01*
X132656945Y-93915000D01*
X132792183Y-93941900D01*
X132792183Y-93941900D01*
G37*
G36*
X177630712Y-88851088D02*
X178000510Y-89004263D01*
X178000513Y-89004265D01*
X178333325Y-89226643D01*
X178616357Y-89509675D01*
X178838735Y-89842487D01*
X178838737Y-89842490D01*
X178991912Y-90212288D01*
X179070000Y-90604864D01*
X179070000Y-91005136D01*
X178991912Y-91397712D01*
X178838737Y-91767510D01*
X178838735Y-91767513D01*
X178616357Y-92100325D01*
X178333325Y-92383357D01*
X178000513Y-92605735D01*
X178000510Y-92605737D01*
X177630712Y-92758912D01*
X177238136Y-92837000D01*
X176837864Y-92837000D01*
X176445288Y-92758912D01*
X176075490Y-92605737D01*
X176075487Y-92605735D01*
X175742675Y-92383357D01*
X175459643Y-92100325D01*
X175237265Y-91767513D01*
X175237263Y-91767510D01*
X175084088Y-91397712D01*
X175006000Y-91005136D01*
X175006000Y-90604864D01*
X175084088Y-90212288D01*
X175237263Y-89842490D01*
X175237265Y-89842487D01*
X175459643Y-89509675D01*
X175742675Y-89226643D01*
X176075487Y-89004265D01*
X176075490Y-89004263D01*
X176445288Y-88851088D01*
X176837864Y-88773000D01*
X177238136Y-88773000D01*
X177630712Y-88851088D01*
X177630712Y-88851088D01*
G37*
G36*
X141740521Y-89939586D02*
X141904309Y-90007429D01*
X142051720Y-90105926D01*
X142177074Y-90231280D01*
X142275571Y-90378691D01*
X142343414Y-90542479D01*
X142378000Y-90716356D01*
X142378000Y-90893644D01*
X142343414Y-91067521D01*
X142275571Y-91231309D01*
X142177074Y-91378720D01*
X142051720Y-91504074D01*
X141904309Y-91602571D01*
X141740521Y-91670414D01*
X141566644Y-91705000D01*
X141389356Y-91705000D01*
X141215479Y-91670414D01*
X141051691Y-91602571D01*
X140904280Y-91504074D01*
X140778926Y-91378720D01*
X140680429Y-91231309D01*
X140612586Y-91067521D01*
X140578000Y-90893644D01*
X140578000Y-90716356D01*
X140612586Y-90542479D01*
X140680429Y-90378691D01*
X140778926Y-90231280D01*
X140904280Y-90105926D01*
X141051691Y-90007429D01*
X141215479Y-89939586D01*
X141389356Y-89905000D01*
X141566644Y-89905000D01*
X141740521Y-89939586D01*
X141740521Y-89939586D01*
G37*
G36*
X132792183Y-90131900D02*
X132919574Y-90184668D01*
X133034224Y-90261274D01*
X133131726Y-90358776D01*
X133149248Y-90385000D01*
X133208332Y-90473426D01*
X133261100Y-90600817D01*
X133288000Y-90736055D01*
X133288000Y-90873945D01*
X133261100Y-91009183D01*
X133208332Y-91136574D01*
X133131726Y-91251224D01*
X133034224Y-91348726D01*
X132960909Y-91397713D01*
X132919574Y-91425332D01*
X132792183Y-91478100D01*
X132656945Y-91505000D01*
X132519055Y-91505000D01*
X132383817Y-91478100D01*
X132256426Y-91425332D01*
X132215091Y-91397713D01*
X132141776Y-91348726D01*
X132044274Y-91251224D01*
X131967668Y-91136574D01*
X131914900Y-91009183D01*
X131888000Y-90873945D01*
X131888000Y-90736055D01*
X131914900Y-90600817D01*
X131967668Y-90473426D01*
X132026752Y-90385000D01*
X132044274Y-90358776D01*
X132141776Y-90261274D01*
X132256426Y-90184668D01*
X132383817Y-90131900D01*
X132519055Y-90105000D01*
X132656945Y-90105000D01*
X132792183Y-90131900D01*
X132792183Y-90131900D01*
G37*
G36*
X125105224Y-90115128D02*
X125237175Y-90155155D01*
X125358781Y-90220155D01*
X125465370Y-90307630D01*
X125552845Y-90414219D01*
X125617845Y-90535825D01*
X125657872Y-90667776D01*
X125671387Y-90805000D01*
X125657872Y-90942224D01*
X125617845Y-91074175D01*
X125552845Y-91195781D01*
X125465370Y-91302370D01*
X125358781Y-91389845D01*
X125237175Y-91454845D01*
X125105224Y-91494872D01*
X125002390Y-91505000D01*
X124933610Y-91505000D01*
X124830776Y-91494872D01*
X124698825Y-91454845D01*
X124577219Y-91389845D01*
X124470630Y-91302370D01*
X124383155Y-91195781D01*
X124318155Y-91074175D01*
X124278128Y-90942224D01*
X124264613Y-90805000D01*
X124278128Y-90667776D01*
X124318155Y-90535825D01*
X124383155Y-90414219D01*
X124470630Y-90307630D01*
X124577219Y-90220155D01*
X124698825Y-90155155D01*
X124830776Y-90115128D01*
X124933610Y-90105000D01*
X125002390Y-90105000D01*
X125105224Y-90115128D01*
X125105224Y-90115128D01*
G37*
G36*
X171538000Y-90385000D02*
X169838000Y-90385000D01*
X169838000Y-88685000D01*
X171538000Y-88685000D01*
X171538000Y-90385000D01*
X171538000Y-90385000D01*
G37*
G36*
X142378000Y-89165000D02*
X140578000Y-89165000D01*
X140578000Y-87365000D01*
X142378000Y-87365000D01*
X142378000Y-89165000D01*
X142378000Y-89165000D01*
G37*
G36*
X170854630Y-86157299D02*
X171014855Y-86205903D01*
X171162520Y-86284831D01*
X171291949Y-86391051D01*
X171398169Y-86520480D01*
X171477097Y-86668145D01*
X171525701Y-86828370D01*
X171542112Y-86995000D01*
X171525701Y-87161630D01*
X171477097Y-87321855D01*
X171398169Y-87469520D01*
X171291949Y-87598949D01*
X171162520Y-87705169D01*
X171014855Y-87784097D01*
X170854630Y-87832701D01*
X170729752Y-87845000D01*
X170646248Y-87845000D01*
X170521370Y-87832701D01*
X170361145Y-87784097D01*
X170213480Y-87705169D01*
X170084051Y-87598949D01*
X169977831Y-87469520D01*
X169898903Y-87321855D01*
X169850299Y-87161630D01*
X169833888Y-86995000D01*
X169850299Y-86828370D01*
X169898903Y-86668145D01*
X169977831Y-86520480D01*
X170084051Y-86391051D01*
X170213480Y-86284831D01*
X170361145Y-86205903D01*
X170521370Y-86157299D01*
X170646248Y-86145000D01*
X170729752Y-86145000D01*
X170854630Y-86157299D01*
X170854630Y-86157299D01*
G37*
G36*
X162798000Y-86725000D02*
X160798000Y-86725000D01*
X160798000Y-84725000D01*
X162798000Y-84725000D01*
X162798000Y-86725000D01*
X162798000Y-86725000D01*
G37*
G36*
X154373770Y-84740372D02*
X154489689Y-84763429D01*
X154671678Y-84838811D01*
X154835463Y-84948249D01*
X154974751Y-85087537D01*
X155084189Y-85251322D01*
X155159571Y-85433311D01*
X155198000Y-85626509D01*
X155198000Y-85823491D01*
X155159571Y-86016689D01*
X155084189Y-86198678D01*
X154974751Y-86362463D01*
X154835463Y-86501751D01*
X154671678Y-86611189D01*
X154489689Y-86686571D01*
X154373770Y-86709628D01*
X154296493Y-86725000D01*
X154099507Y-86725000D01*
X154022230Y-86709628D01*
X153906311Y-86686571D01*
X153724322Y-86611189D01*
X153560537Y-86501751D01*
X153421249Y-86362463D01*
X153311811Y-86198678D01*
X153236429Y-86016689D01*
X153198000Y-85823491D01*
X153198000Y-85626509D01*
X153236429Y-85433311D01*
X153311811Y-85251322D01*
X153421249Y-85087537D01*
X153560537Y-84948249D01*
X153724322Y-84838811D01*
X153906311Y-84763429D01*
X154022230Y-84740372D01*
X154099507Y-84725000D01*
X154296493Y-84725000D01*
X154373770Y-84740372D01*
X154373770Y-84740372D01*
G37*
G36*
X141740521Y-83589586D02*
X141904309Y-83657429D01*
X142051720Y-83755926D01*
X142177074Y-83881280D01*
X142275571Y-84028691D01*
X142343414Y-84192479D01*
X142378000Y-84366356D01*
X142378000Y-84543644D01*
X142343414Y-84717521D01*
X142275571Y-84881309D01*
X142177074Y-85028720D01*
X142051720Y-85154074D01*
X141904309Y-85252571D01*
X141740521Y-85320414D01*
X141566644Y-85355000D01*
X141389356Y-85355000D01*
X141215479Y-85320414D01*
X141051691Y-85252571D01*
X140904280Y-85154074D01*
X140778926Y-85028720D01*
X140680429Y-84881309D01*
X140612586Y-84717521D01*
X140578000Y-84543644D01*
X140578000Y-84366356D01*
X140612586Y-84192479D01*
X140680429Y-84028691D01*
X140778926Y-83881280D01*
X140904280Y-83755926D01*
X141051691Y-83657429D01*
X141215479Y-83589586D01*
X141389356Y-83555000D01*
X141566644Y-83555000D01*
X141740521Y-83589586D01*
X141740521Y-83589586D01*
G37*
G36*
X170854630Y-83617299D02*
X171014855Y-83665903D01*
X171162520Y-83744831D01*
X171291949Y-83851051D01*
X171398169Y-83980480D01*
X171477097Y-84128145D01*
X171525701Y-84288370D01*
X171542112Y-84455000D01*
X171525701Y-84621630D01*
X171477097Y-84781855D01*
X171398169Y-84929520D01*
X171291949Y-85058949D01*
X171162520Y-85165169D01*
X171014855Y-85244097D01*
X170854630Y-85292701D01*
X170729752Y-85305000D01*
X170646248Y-85305000D01*
X170521370Y-85292701D01*
X170361145Y-85244097D01*
X170213480Y-85165169D01*
X170084051Y-85058949D01*
X169977831Y-84929520D01*
X169898903Y-84781855D01*
X169850299Y-84621630D01*
X169833888Y-84455000D01*
X169850299Y-84288370D01*
X169898903Y-84128145D01*
X169977831Y-83980480D01*
X170084051Y-83851051D01*
X170213480Y-83744831D01*
X170361145Y-83665903D01*
X170521370Y-83617299D01*
X170646248Y-83605000D01*
X170729752Y-83605000D01*
X170854630Y-83617299D01*
X170854630Y-83617299D01*
G37*
G36*
X125778770Y-82835372D02*
X125894689Y-82858429D01*
X126076678Y-82933811D01*
X126240463Y-83043249D01*
X126379751Y-83182537D01*
X126489189Y-83346322D01*
X126564571Y-83528311D01*
X126582272Y-83617300D01*
X126601731Y-83715126D01*
X126603000Y-83721509D01*
X126603000Y-83918491D01*
X126564571Y-84111689D01*
X126489189Y-84293678D01*
X126379751Y-84457463D01*
X126240463Y-84596751D01*
X126076678Y-84706189D01*
X125894689Y-84781571D01*
X125778770Y-84804628D01*
X125701493Y-84820000D01*
X125504507Y-84820000D01*
X125427230Y-84804628D01*
X125311311Y-84781571D01*
X125129322Y-84706189D01*
X124965537Y-84596751D01*
X124826249Y-84457463D01*
X124716811Y-84293678D01*
X124641429Y-84111689D01*
X124603000Y-83918491D01*
X124603000Y-83721509D01*
X124604270Y-83715126D01*
X124623728Y-83617300D01*
X124641429Y-83528311D01*
X124716811Y-83346322D01*
X124826249Y-83182537D01*
X124965537Y-83043249D01*
X125129322Y-82933811D01*
X125311311Y-82858429D01*
X125427230Y-82835372D01*
X125504507Y-82820000D01*
X125701493Y-82820000D01*
X125778770Y-82835372D01*
X125778770Y-82835372D01*
G37*
G36*
X128318770Y-82835372D02*
X128434689Y-82858429D01*
X128616678Y-82933811D01*
X128780463Y-83043249D01*
X128919751Y-83182537D01*
X129029189Y-83346322D01*
X129104571Y-83528311D01*
X129122272Y-83617300D01*
X129141731Y-83715126D01*
X129143000Y-83721509D01*
X129143000Y-83918491D01*
X129104571Y-84111689D01*
X129029189Y-84293678D01*
X128919751Y-84457463D01*
X128780463Y-84596751D01*
X128616678Y-84706189D01*
X128434689Y-84781571D01*
X128318770Y-84804628D01*
X128241493Y-84820000D01*
X128044507Y-84820000D01*
X127967230Y-84804628D01*
X127851311Y-84781571D01*
X127669322Y-84706189D01*
X127505537Y-84596751D01*
X127366249Y-84457463D01*
X127256811Y-84293678D01*
X127181429Y-84111689D01*
X127143000Y-83918491D01*
X127143000Y-83721509D01*
X127144270Y-83715126D01*
X127163728Y-83617300D01*
X127181429Y-83528311D01*
X127256811Y-83346322D01*
X127366249Y-83182537D01*
X127505537Y-83043249D01*
X127669322Y-82933811D01*
X127851311Y-82858429D01*
X127967230Y-82835372D01*
X128044507Y-82820000D01*
X128241493Y-82820000D01*
X128318770Y-82835372D01*
X128318770Y-82835372D01*
G37*
G36*
X120698770Y-82835372D02*
X120814689Y-82858429D01*
X120996678Y-82933811D01*
X121160463Y-83043249D01*
X121299751Y-83182537D01*
X121409189Y-83346322D01*
X121484571Y-83528311D01*
X121502272Y-83617300D01*
X121521731Y-83715126D01*
X121523000Y-83721509D01*
X121523000Y-83918491D01*
X121484571Y-84111689D01*
X121409189Y-84293678D01*
X121299751Y-84457463D01*
X121160463Y-84596751D01*
X120996678Y-84706189D01*
X120814689Y-84781571D01*
X120698770Y-84804628D01*
X120621493Y-84820000D01*
X120424507Y-84820000D01*
X120347230Y-84804628D01*
X120231311Y-84781571D01*
X120049322Y-84706189D01*
X119885537Y-84596751D01*
X119746249Y-84457463D01*
X119636811Y-84293678D01*
X119561429Y-84111689D01*
X119523000Y-83918491D01*
X119523000Y-83721509D01*
X119524270Y-83715126D01*
X119543728Y-83617300D01*
X119561429Y-83528311D01*
X119636811Y-83346322D01*
X119746249Y-83182537D01*
X119885537Y-83043249D01*
X120049322Y-82933811D01*
X120231311Y-82858429D01*
X120347230Y-82835372D01*
X120424507Y-82820000D01*
X120621493Y-82820000D01*
X120698770Y-82835372D01*
X120698770Y-82835372D01*
G37*
G36*
X123238770Y-82835372D02*
X123354689Y-82858429D01*
X123536678Y-82933811D01*
X123700463Y-83043249D01*
X123839751Y-83182537D01*
X123949189Y-83346322D01*
X124024571Y-83528311D01*
X124042272Y-83617300D01*
X124061731Y-83715126D01*
X124063000Y-83721509D01*
X124063000Y-83918491D01*
X124024571Y-84111689D01*
X123949189Y-84293678D01*
X123839751Y-84457463D01*
X123700463Y-84596751D01*
X123536678Y-84706189D01*
X123354689Y-84781571D01*
X123238770Y-84804628D01*
X123161493Y-84820000D01*
X122964507Y-84820000D01*
X122887230Y-84804628D01*
X122771311Y-84781571D01*
X122589322Y-84706189D01*
X122425537Y-84596751D01*
X122286249Y-84457463D01*
X122176811Y-84293678D01*
X122101429Y-84111689D01*
X122063000Y-83918491D01*
X122063000Y-83721509D01*
X122064270Y-83715126D01*
X122083728Y-83617300D01*
X122101429Y-83528311D01*
X122176811Y-83346322D01*
X122286249Y-83182537D01*
X122425537Y-83043249D01*
X122589322Y-82933811D01*
X122771311Y-82858429D01*
X122887230Y-82835372D01*
X122964507Y-82820000D01*
X123161493Y-82820000D01*
X123238770Y-82835372D01*
X123238770Y-82835372D01*
G37*
G36*
X114457979Y-81077299D02*
X114610534Y-81107644D01*
X114883517Y-81220717D01*
X115018712Y-81311052D01*
X115129197Y-81384876D01*
X115338124Y-81593803D01*
X115338126Y-81593806D01*
X115441404Y-81748371D01*
X115502284Y-81839485D01*
X115615356Y-82112467D01*
X115673000Y-82402261D01*
X115673000Y-82697739D01*
X115634571Y-82890935D01*
X115615356Y-82987534D01*
X115502283Y-83260517D01*
X115340313Y-83502920D01*
X115338124Y-83506197D01*
X115129197Y-83715124D01*
X115129194Y-83715126D01*
X114883517Y-83879283D01*
X114610534Y-83992356D01*
X114513935Y-84011571D01*
X114320739Y-84050000D01*
X114025261Y-84050000D01*
X113832065Y-84011571D01*
X113735466Y-83992356D01*
X113462483Y-83879283D01*
X113216806Y-83715126D01*
X113216803Y-83715124D01*
X113007876Y-83506197D01*
X113005687Y-83502920D01*
X112843717Y-83260517D01*
X112730644Y-82987534D01*
X112711429Y-82890935D01*
X112673000Y-82697739D01*
X112673000Y-82402261D01*
X112730644Y-82112467D01*
X112843716Y-81839485D01*
X112904597Y-81748371D01*
X113007874Y-81593806D01*
X113007876Y-81593803D01*
X113216803Y-81384876D01*
X113327288Y-81311052D01*
X113462483Y-81220717D01*
X113735466Y-81107644D01*
X113888021Y-81077299D01*
X114025261Y-81050000D01*
X114320739Y-81050000D01*
X114457979Y-81077299D01*
X114457979Y-81077299D01*
G37*
G36*
X134142979Y-81077299D02*
X134295534Y-81107644D01*
X134568517Y-81220717D01*
X134703712Y-81311052D01*
X134814197Y-81384876D01*
X135023124Y-81593803D01*
X135023126Y-81593806D01*
X135126404Y-81748371D01*
X135187284Y-81839485D01*
X135300356Y-82112467D01*
X135358000Y-82402261D01*
X135358000Y-82697739D01*
X135319571Y-82890935D01*
X135300356Y-82987534D01*
X135187283Y-83260517D01*
X135025313Y-83502920D01*
X135023124Y-83506197D01*
X134814197Y-83715124D01*
X134814194Y-83715126D01*
X134568517Y-83879283D01*
X134295534Y-83992356D01*
X134198935Y-84011571D01*
X134005739Y-84050000D01*
X133710261Y-84050000D01*
X133517065Y-84011571D01*
X133420466Y-83992356D01*
X133147483Y-83879283D01*
X132901806Y-83715126D01*
X132901803Y-83715124D01*
X132692876Y-83506197D01*
X132690687Y-83502920D01*
X132528717Y-83260517D01*
X132415644Y-82987534D01*
X132396429Y-82890935D01*
X132358000Y-82697739D01*
X132358000Y-82402261D01*
X132415644Y-82112467D01*
X132528716Y-81839485D01*
X132589597Y-81748371D01*
X132692874Y-81593806D01*
X132692876Y-81593803D01*
X132901803Y-81384876D01*
X133012288Y-81311052D01*
X133147483Y-81220717D01*
X133420466Y-81107644D01*
X133573021Y-81077299D01*
X133710261Y-81050000D01*
X134005739Y-81050000D01*
X134142979Y-81077299D01*
X134142979Y-81077299D01*
G37*
G36*
X142378000Y-82815000D02*
X140578000Y-82815000D01*
X140578000Y-81015000D01*
X142378000Y-81015000D01*
X142378000Y-82815000D01*
X142378000Y-82815000D01*
G37*
G36*
X170854630Y-81077299D02*
X171014855Y-81125903D01*
X171162520Y-81204831D01*
X171291949Y-81311051D01*
X171398169Y-81440480D01*
X171477097Y-81588145D01*
X171525701Y-81748370D01*
X171542112Y-81915000D01*
X171525701Y-82081630D01*
X171477097Y-82241855D01*
X171398169Y-82389520D01*
X171291949Y-82518949D01*
X171162520Y-82625169D01*
X171014855Y-82704097D01*
X170854630Y-82752701D01*
X170729752Y-82765000D01*
X170646248Y-82765000D01*
X170521370Y-82752701D01*
X170361145Y-82704097D01*
X170213480Y-82625169D01*
X170084051Y-82518949D01*
X169977831Y-82389520D01*
X169898903Y-82241855D01*
X169850299Y-82081630D01*
X169833888Y-81915000D01*
X169850299Y-81748370D01*
X169898903Y-81588145D01*
X169977831Y-81440480D01*
X170084051Y-81311051D01*
X170213480Y-81204831D01*
X170361145Y-81125903D01*
X170521370Y-81077299D01*
X170646248Y-81065000D01*
X170729752Y-81065000D01*
X170854630Y-81077299D01*
X170854630Y-81077299D01*
G37*
G36*
X126830712Y-73611088D02*
X127200510Y-73764263D01*
X127200513Y-73764265D01*
X127533325Y-73986643D01*
X127816357Y-74269675D01*
X128000204Y-74544822D01*
X128038737Y-74602490D01*
X128191912Y-74972288D01*
X128270000Y-75364864D01*
X128270000Y-75765136D01*
X128191912Y-76157712D01*
X128038737Y-76527510D01*
X128038735Y-76527513D01*
X127816357Y-76860325D01*
X127533325Y-77143357D01*
X127200513Y-77365735D01*
X127200510Y-77365737D01*
X126830712Y-77518912D01*
X126438136Y-77597000D01*
X126037864Y-77597000D01*
X125645288Y-77518912D01*
X125275490Y-77365737D01*
X125275487Y-77365735D01*
X124942675Y-77143357D01*
X124659643Y-76860325D01*
X124437265Y-76527513D01*
X124437263Y-76527510D01*
X124284088Y-76157712D01*
X124206000Y-75765136D01*
X124206000Y-75364864D01*
X124284088Y-74972288D01*
X124437263Y-74602490D01*
X124475796Y-74544822D01*
X124659643Y-74269675D01*
X124942675Y-73986643D01*
X125275487Y-73764265D01*
X125275490Y-73764263D01*
X125645288Y-73611088D01*
X126037864Y-73533000D01*
X126438136Y-73533000D01*
X126830712Y-73611088D01*
X126830712Y-73611088D01*
G37*
G36*
X135043294Y-74561496D02*
X135163726Y-74598029D01*
X135206087Y-74610879D01*
X135356112Y-74691068D01*
X135487612Y-74798988D01*
X135595532Y-74930488D01*
X135675721Y-75080512D01*
X135678745Y-75090480D01*
X135725104Y-75243305D01*
X135725104Y-75243307D01*
X135737600Y-75370179D01*
X135737600Y-75759820D01*
X135737076Y-75765136D01*
X135725104Y-75886694D01*
X135723538Y-75891855D01*
X135675721Y-76049488D01*
X135595532Y-76199512D01*
X135487612Y-76331012D01*
X135356112Y-76438932D01*
X135206088Y-76519121D01*
X135178433Y-76527510D01*
X135043295Y-76568504D01*
X134930432Y-76579620D01*
X134874001Y-76585178D01*
X134874000Y-76585178D01*
X134704706Y-76568504D01*
X134569568Y-76527510D01*
X134541913Y-76519121D01*
X134391889Y-76438932D01*
X134301946Y-76365117D01*
X134260388Y-76331012D01*
X134152469Y-76199512D01*
X134152467Y-76199509D01*
X134072279Y-76049488D01*
X134059429Y-76007127D01*
X134022896Y-75886695D01*
X134014565Y-75802112D01*
X134010400Y-75759821D01*
X134010400Y-75370180D01*
X134022896Y-75243308D01*
X134022896Y-75243306D01*
X134072278Y-75080517D01*
X134072279Y-75080513D01*
X134152468Y-74930488D01*
X134260388Y-74798988D01*
X134391888Y-74691068D01*
X134541912Y-74610879D01*
X134584273Y-74598029D01*
X134704705Y-74561496D01*
X134817568Y-74550380D01*
X134873999Y-74544822D01*
X134874000Y-74544822D01*
X135043294Y-74561496D01*
X135043294Y-74561496D01*
G37*
G36*
X150283294Y-74561496D02*
X150403726Y-74598029D01*
X150446087Y-74610879D01*
X150596112Y-74691068D01*
X150727612Y-74798988D01*
X150835532Y-74930488D01*
X150915721Y-75080512D01*
X150918745Y-75090480D01*
X150965104Y-75243305D01*
X150965104Y-75243307D01*
X150977600Y-75370179D01*
X150977600Y-75759820D01*
X150977076Y-75765136D01*
X150965104Y-75886694D01*
X150963538Y-75891855D01*
X150915721Y-76049488D01*
X150835532Y-76199512D01*
X150727612Y-76331012D01*
X150596112Y-76438932D01*
X150446088Y-76519121D01*
X150418433Y-76527510D01*
X150283295Y-76568504D01*
X150170432Y-76579620D01*
X150114001Y-76585178D01*
X150114000Y-76585178D01*
X149944706Y-76568504D01*
X149809568Y-76527510D01*
X149781913Y-76519121D01*
X149631889Y-76438932D01*
X149541946Y-76365117D01*
X149500388Y-76331012D01*
X149392469Y-76199512D01*
X149392467Y-76199509D01*
X149312279Y-76049488D01*
X149299429Y-76007127D01*
X149262896Y-75886695D01*
X149254565Y-75802112D01*
X149250400Y-75759821D01*
X149250400Y-75370180D01*
X149262896Y-75243308D01*
X149262896Y-75243306D01*
X149312278Y-75080517D01*
X149312279Y-75080513D01*
X149392468Y-74930488D01*
X149500388Y-74798988D01*
X149631888Y-74691068D01*
X149781912Y-74610879D01*
X149824273Y-74598029D01*
X149944705Y-74561496D01*
X150057568Y-74550380D01*
X150113999Y-74544822D01*
X150114000Y-74544822D01*
X150283294Y-74561496D01*
X150283294Y-74561496D01*
G37*
G36*
X129963294Y-74561496D02*
X130083726Y-74598029D01*
X130126087Y-74610879D01*
X130276112Y-74691068D01*
X130407612Y-74798988D01*
X130515532Y-74930488D01*
X130595721Y-75080512D01*
X130598745Y-75090480D01*
X130645104Y-75243305D01*
X130645104Y-75243307D01*
X130657600Y-75370179D01*
X130657600Y-75759820D01*
X130657076Y-75765136D01*
X130645104Y-75886694D01*
X130643538Y-75891855D01*
X130595721Y-76049488D01*
X130515532Y-76199512D01*
X130407612Y-76331012D01*
X130276112Y-76438932D01*
X130126088Y-76519121D01*
X130098433Y-76527510D01*
X129963295Y-76568504D01*
X129850432Y-76579620D01*
X129794001Y-76585178D01*
X129794000Y-76585178D01*
X129624706Y-76568504D01*
X129489568Y-76527510D01*
X129461913Y-76519121D01*
X129311889Y-76438932D01*
X129221946Y-76365117D01*
X129180388Y-76331012D01*
X129072469Y-76199512D01*
X129072467Y-76199509D01*
X128992279Y-76049488D01*
X128979429Y-76007127D01*
X128942896Y-75886695D01*
X128934565Y-75802112D01*
X128930400Y-75759821D01*
X128930400Y-75370180D01*
X128942896Y-75243308D01*
X128942896Y-75243306D01*
X128992278Y-75080517D01*
X128992279Y-75080513D01*
X129072468Y-74930488D01*
X129180388Y-74798988D01*
X129311888Y-74691068D01*
X129461912Y-74610879D01*
X129504273Y-74598029D01*
X129624705Y-74561496D01*
X129737568Y-74550380D01*
X129793999Y-74544822D01*
X129794000Y-74544822D01*
X129963294Y-74561496D01*
X129963294Y-74561496D01*
G37*
G36*
X152823294Y-74561496D02*
X152943726Y-74598029D01*
X152986087Y-74610879D01*
X153136112Y-74691068D01*
X153267612Y-74798988D01*
X153375532Y-74930488D01*
X153455721Y-75080512D01*
X153458745Y-75090480D01*
X153505104Y-75243305D01*
X153505104Y-75243307D01*
X153517600Y-75370179D01*
X153517600Y-75759820D01*
X153517076Y-75765136D01*
X153505104Y-75886694D01*
X153503538Y-75891855D01*
X153455721Y-76049488D01*
X153375532Y-76199512D01*
X153267612Y-76331012D01*
X153136112Y-76438932D01*
X152986088Y-76519121D01*
X152958433Y-76527510D01*
X152823295Y-76568504D01*
X152710432Y-76579620D01*
X152654001Y-76585178D01*
X152654000Y-76585178D01*
X152484706Y-76568504D01*
X152349568Y-76527510D01*
X152321913Y-76519121D01*
X152171889Y-76438932D01*
X152081946Y-76365117D01*
X152040388Y-76331012D01*
X151932469Y-76199512D01*
X151932467Y-76199509D01*
X151852279Y-76049488D01*
X151839429Y-76007127D01*
X151802896Y-75886695D01*
X151794565Y-75802112D01*
X151790400Y-75759821D01*
X151790400Y-75370180D01*
X151802896Y-75243308D01*
X151802896Y-75243306D01*
X151852278Y-75080517D01*
X151852279Y-75080513D01*
X151932468Y-74930488D01*
X152040388Y-74798988D01*
X152171888Y-74691068D01*
X152321912Y-74610879D01*
X152364273Y-74598029D01*
X152484705Y-74561496D01*
X152597568Y-74550380D01*
X152653999Y-74544822D01*
X152654000Y-74544822D01*
X152823294Y-74561496D01*
X152823294Y-74561496D01*
G37*
G36*
X145203294Y-74561496D02*
X145323726Y-74598029D01*
X145366087Y-74610879D01*
X145516112Y-74691068D01*
X145647612Y-74798988D01*
X145755532Y-74930488D01*
X145835721Y-75080512D01*
X145838745Y-75090480D01*
X145885104Y-75243305D01*
X145885104Y-75243307D01*
X145897600Y-75370179D01*
X145897600Y-75759820D01*
X145897076Y-75765136D01*
X145885104Y-75886694D01*
X145883538Y-75891855D01*
X145835721Y-76049488D01*
X145755532Y-76199512D01*
X145647612Y-76331012D01*
X145516112Y-76438932D01*
X145366088Y-76519121D01*
X145338433Y-76527510D01*
X145203295Y-76568504D01*
X145090432Y-76579620D01*
X145034001Y-76585178D01*
X145034000Y-76585178D01*
X144864706Y-76568504D01*
X144729568Y-76527510D01*
X144701913Y-76519121D01*
X144551889Y-76438932D01*
X144461946Y-76365117D01*
X144420388Y-76331012D01*
X144312469Y-76199512D01*
X144312467Y-76199509D01*
X144232279Y-76049488D01*
X144219429Y-76007127D01*
X144182896Y-75886695D01*
X144174565Y-75802112D01*
X144170400Y-75759821D01*
X144170400Y-75370180D01*
X144182896Y-75243308D01*
X144182896Y-75243306D01*
X144232278Y-75080517D01*
X144232279Y-75080513D01*
X144312468Y-74930488D01*
X144420388Y-74798988D01*
X144551888Y-74691068D01*
X144701912Y-74610879D01*
X144744273Y-74598029D01*
X144864705Y-74561496D01*
X144977568Y-74550380D01*
X145033999Y-74544822D01*
X145034000Y-74544822D01*
X145203294Y-74561496D01*
X145203294Y-74561496D01*
G37*
G36*
X147743294Y-74561496D02*
X147863726Y-74598029D01*
X147906087Y-74610879D01*
X148056112Y-74691068D01*
X148187612Y-74798988D01*
X148295532Y-74930488D01*
X148375721Y-75080512D01*
X148378745Y-75090480D01*
X148425104Y-75243305D01*
X148425104Y-75243307D01*
X148437600Y-75370179D01*
X148437600Y-75759820D01*
X148437076Y-75765136D01*
X148425104Y-75886694D01*
X148423538Y-75891855D01*
X148375721Y-76049488D01*
X148295532Y-76199512D01*
X148187612Y-76331012D01*
X148056112Y-76438932D01*
X147906088Y-76519121D01*
X147878433Y-76527510D01*
X147743295Y-76568504D01*
X147630432Y-76579620D01*
X147574001Y-76585178D01*
X147574000Y-76585178D01*
X147404706Y-76568504D01*
X147269568Y-76527510D01*
X147241913Y-76519121D01*
X147091889Y-76438932D01*
X147001946Y-76365117D01*
X146960388Y-76331012D01*
X146852469Y-76199512D01*
X146852467Y-76199509D01*
X146772279Y-76049488D01*
X146759429Y-76007127D01*
X146722896Y-75886695D01*
X146714565Y-75802112D01*
X146710400Y-75759821D01*
X146710400Y-75370180D01*
X146722896Y-75243308D01*
X146722896Y-75243306D01*
X146772278Y-75080517D01*
X146772279Y-75080513D01*
X146852468Y-74930488D01*
X146960388Y-74798988D01*
X147091888Y-74691068D01*
X147241912Y-74610879D01*
X147284273Y-74598029D01*
X147404705Y-74561496D01*
X147517568Y-74550380D01*
X147573999Y-74544822D01*
X147574000Y-74544822D01*
X147743294Y-74561496D01*
X147743294Y-74561496D01*
G37*
G36*
X174667294Y-74561496D02*
X174787726Y-74598029D01*
X174830087Y-74610879D01*
X174980112Y-74691068D01*
X175111612Y-74798988D01*
X175219532Y-74930488D01*
X175299721Y-75080512D01*
X175302745Y-75090480D01*
X175349104Y-75243305D01*
X175349104Y-75243307D01*
X175361600Y-75370179D01*
X175361600Y-75759820D01*
X175361076Y-75765136D01*
X175349104Y-75886694D01*
X175347538Y-75891855D01*
X175299721Y-76049488D01*
X175219532Y-76199512D01*
X175111612Y-76331012D01*
X174980112Y-76438932D01*
X174830088Y-76519121D01*
X174802433Y-76527510D01*
X174667295Y-76568504D01*
X174554432Y-76579620D01*
X174498001Y-76585178D01*
X174498000Y-76585178D01*
X174328706Y-76568504D01*
X174193568Y-76527510D01*
X174165913Y-76519121D01*
X174015889Y-76438932D01*
X173925946Y-76365117D01*
X173884388Y-76331012D01*
X173776469Y-76199512D01*
X173776467Y-76199509D01*
X173696279Y-76049488D01*
X173683429Y-76007127D01*
X173646896Y-75886695D01*
X173638565Y-75802112D01*
X173634400Y-75759821D01*
X173634400Y-75370180D01*
X173646896Y-75243308D01*
X173646896Y-75243306D01*
X173696278Y-75080517D01*
X173696279Y-75080513D01*
X173776468Y-74930488D01*
X173884388Y-74798988D01*
X174015888Y-74691068D01*
X174165912Y-74610879D01*
X174208273Y-74598029D01*
X174328705Y-74561496D01*
X174441568Y-74550380D01*
X174497999Y-74544822D01*
X174498000Y-74544822D01*
X174667294Y-74561496D01*
X174667294Y-74561496D01*
G37*
G36*
X140123294Y-74561496D02*
X140243726Y-74598029D01*
X140286087Y-74610879D01*
X140436112Y-74691068D01*
X140567612Y-74798988D01*
X140675532Y-74930488D01*
X140755721Y-75080512D01*
X140758745Y-75090480D01*
X140805104Y-75243305D01*
X140805104Y-75243307D01*
X140817600Y-75370179D01*
X140817600Y-75759820D01*
X140817076Y-75765136D01*
X140805104Y-75886694D01*
X140803538Y-75891855D01*
X140755721Y-76049488D01*
X140675532Y-76199512D01*
X140567612Y-76331012D01*
X140436112Y-76438932D01*
X140286088Y-76519121D01*
X140258433Y-76527510D01*
X140123295Y-76568504D01*
X140010432Y-76579620D01*
X139954001Y-76585178D01*
X139954000Y-76585178D01*
X139784706Y-76568504D01*
X139649568Y-76527510D01*
X139621913Y-76519121D01*
X139471889Y-76438932D01*
X139381946Y-76365117D01*
X139340388Y-76331012D01*
X139232469Y-76199512D01*
X139232467Y-76199509D01*
X139152279Y-76049488D01*
X139139429Y-76007127D01*
X139102896Y-75886695D01*
X139094565Y-75802112D01*
X139090400Y-75759821D01*
X139090400Y-75370180D01*
X139102896Y-75243308D01*
X139102896Y-75243306D01*
X139152278Y-75080517D01*
X139152279Y-75080513D01*
X139232468Y-74930488D01*
X139340388Y-74798988D01*
X139471888Y-74691068D01*
X139621912Y-74610879D01*
X139664273Y-74598029D01*
X139784705Y-74561496D01*
X139897568Y-74550380D01*
X139953999Y-74544822D01*
X139954000Y-74544822D01*
X140123294Y-74561496D01*
X140123294Y-74561496D01*
G37*
G36*
X137583294Y-74561496D02*
X137703726Y-74598029D01*
X137746087Y-74610879D01*
X137896112Y-74691068D01*
X138027612Y-74798988D01*
X138135532Y-74930488D01*
X138215721Y-75080512D01*
X138218745Y-75090480D01*
X138265104Y-75243305D01*
X138265104Y-75243307D01*
X138277600Y-75370179D01*
X138277600Y-75759820D01*
X138277076Y-75765136D01*
X138265104Y-75886694D01*
X138263538Y-75891855D01*
X138215721Y-76049488D01*
X138135532Y-76199512D01*
X138027612Y-76331012D01*
X137896112Y-76438932D01*
X137746088Y-76519121D01*
X137718433Y-76527510D01*
X137583295Y-76568504D01*
X137470432Y-76579620D01*
X137414001Y-76585178D01*
X137414000Y-76585178D01*
X137244706Y-76568504D01*
X137109568Y-76527510D01*
X137081913Y-76519121D01*
X136931889Y-76438932D01*
X136841946Y-76365117D01*
X136800388Y-76331012D01*
X136692469Y-76199512D01*
X136692467Y-76199509D01*
X136612279Y-76049488D01*
X136599429Y-76007127D01*
X136562896Y-75886695D01*
X136554565Y-75802112D01*
X136550400Y-75759821D01*
X136550400Y-75370180D01*
X136562896Y-75243308D01*
X136562896Y-75243306D01*
X136612278Y-75080517D01*
X136612279Y-75080513D01*
X136692468Y-74930488D01*
X136800388Y-74798988D01*
X136931888Y-74691068D01*
X137081912Y-74610879D01*
X137124273Y-74598029D01*
X137244705Y-74561496D01*
X137357568Y-74550380D01*
X137413999Y-74544822D01*
X137414000Y-74544822D01*
X137583294Y-74561496D01*
X137583294Y-74561496D01*
G37*
G36*
X172127294Y-74561496D02*
X172247726Y-74598029D01*
X172290087Y-74610879D01*
X172440112Y-74691068D01*
X172571612Y-74798988D01*
X172679532Y-74930488D01*
X172759721Y-75080512D01*
X172762745Y-75090480D01*
X172809104Y-75243305D01*
X172809104Y-75243307D01*
X172821600Y-75370179D01*
X172821600Y-75759820D01*
X172821076Y-75765136D01*
X172809104Y-75886694D01*
X172807538Y-75891855D01*
X172759721Y-76049488D01*
X172679532Y-76199512D01*
X172571612Y-76331012D01*
X172440112Y-76438932D01*
X172290088Y-76519121D01*
X172262433Y-76527510D01*
X172127295Y-76568504D01*
X172014432Y-76579620D01*
X171958001Y-76585178D01*
X171958000Y-76585178D01*
X171788706Y-76568504D01*
X171653568Y-76527510D01*
X171625913Y-76519121D01*
X171475889Y-76438932D01*
X171385946Y-76365117D01*
X171344388Y-76331012D01*
X171236469Y-76199512D01*
X171236467Y-76199509D01*
X171156279Y-76049488D01*
X171143429Y-76007127D01*
X171106896Y-75886695D01*
X171098565Y-75802112D01*
X171094400Y-75759821D01*
X171094400Y-75370180D01*
X171106896Y-75243308D01*
X171106896Y-75243306D01*
X171156278Y-75080517D01*
X171156279Y-75080513D01*
X171236468Y-74930488D01*
X171344388Y-74798988D01*
X171475888Y-74691068D01*
X171625912Y-74610879D01*
X171668273Y-74598029D01*
X171788705Y-74561496D01*
X171901568Y-74550380D01*
X171957999Y-74544822D01*
X171958000Y-74544822D01*
X172127294Y-74561496D01*
X172127294Y-74561496D01*
G37*
G36*
X142663294Y-74561496D02*
X142783726Y-74598029D01*
X142826087Y-74610879D01*
X142976112Y-74691068D01*
X143107612Y-74798988D01*
X143215532Y-74930488D01*
X143295721Y-75080512D01*
X143298745Y-75090480D01*
X143345104Y-75243305D01*
X143345104Y-75243307D01*
X143357600Y-75370179D01*
X143357600Y-75759820D01*
X143357076Y-75765136D01*
X143345104Y-75886694D01*
X143343538Y-75891855D01*
X143295721Y-76049488D01*
X143215532Y-76199512D01*
X143107612Y-76331012D01*
X142976112Y-76438932D01*
X142826088Y-76519121D01*
X142798433Y-76527510D01*
X142663295Y-76568504D01*
X142550432Y-76579620D01*
X142494001Y-76585178D01*
X142494000Y-76585178D01*
X142324706Y-76568504D01*
X142189568Y-76527510D01*
X142161913Y-76519121D01*
X142011889Y-76438932D01*
X141921946Y-76365117D01*
X141880388Y-76331012D01*
X141772469Y-76199512D01*
X141772467Y-76199509D01*
X141692279Y-76049488D01*
X141679429Y-76007127D01*
X141642896Y-75886695D01*
X141634565Y-75802112D01*
X141630400Y-75759821D01*
X141630400Y-75370180D01*
X141642896Y-75243308D01*
X141642896Y-75243306D01*
X141692278Y-75080517D01*
X141692279Y-75080513D01*
X141772468Y-74930488D01*
X141880388Y-74798988D01*
X142011888Y-74691068D01*
X142161912Y-74610879D01*
X142204273Y-74598029D01*
X142324705Y-74561496D01*
X142437568Y-74550380D01*
X142493999Y-74544822D01*
X142494000Y-74544822D01*
X142663294Y-74561496D01*
X142663294Y-74561496D01*
G37*
G36*
X167047294Y-74561496D02*
X167167726Y-74598029D01*
X167210087Y-74610879D01*
X167360112Y-74691068D01*
X167491612Y-74798988D01*
X167599532Y-74930488D01*
X167679721Y-75080512D01*
X167682745Y-75090480D01*
X167729104Y-75243305D01*
X167729104Y-75243307D01*
X167741600Y-75370179D01*
X167741600Y-75759820D01*
X167741076Y-75765136D01*
X167729104Y-75886694D01*
X167727538Y-75891855D01*
X167679721Y-76049488D01*
X167599532Y-76199512D01*
X167491612Y-76331012D01*
X167360112Y-76438932D01*
X167210088Y-76519121D01*
X167182433Y-76527510D01*
X167047295Y-76568504D01*
X166934432Y-76579620D01*
X166878001Y-76585178D01*
X166878000Y-76585178D01*
X166708706Y-76568504D01*
X166573568Y-76527510D01*
X166545913Y-76519121D01*
X166395889Y-76438932D01*
X166305946Y-76365117D01*
X166264388Y-76331012D01*
X166156469Y-76199512D01*
X166156467Y-76199509D01*
X166076279Y-76049488D01*
X166063429Y-76007127D01*
X166026896Y-75886695D01*
X166018565Y-75802112D01*
X166014400Y-75759821D01*
X166014400Y-75370180D01*
X166026896Y-75243308D01*
X166026896Y-75243306D01*
X166076278Y-75080517D01*
X166076279Y-75080513D01*
X166156468Y-74930488D01*
X166264388Y-74798988D01*
X166395888Y-74691068D01*
X166545912Y-74610879D01*
X166588273Y-74598029D01*
X166708705Y-74561496D01*
X166821568Y-74550380D01*
X166877999Y-74544822D01*
X166878000Y-74544822D01*
X167047294Y-74561496D01*
X167047294Y-74561496D01*
G37*
G36*
X164507294Y-74561496D02*
X164627726Y-74598029D01*
X164670087Y-74610879D01*
X164820112Y-74691068D01*
X164951612Y-74798988D01*
X165059532Y-74930488D01*
X165139721Y-75080512D01*
X165142745Y-75090480D01*
X165189104Y-75243305D01*
X165189104Y-75243307D01*
X165201600Y-75370179D01*
X165201600Y-75759820D01*
X165201076Y-75765136D01*
X165189104Y-75886694D01*
X165187538Y-75891855D01*
X165139721Y-76049488D01*
X165059532Y-76199512D01*
X164951612Y-76331012D01*
X164820112Y-76438932D01*
X164670088Y-76519121D01*
X164642433Y-76527510D01*
X164507295Y-76568504D01*
X164394432Y-76579620D01*
X164338001Y-76585178D01*
X164338000Y-76585178D01*
X164168706Y-76568504D01*
X164033568Y-76527510D01*
X164005913Y-76519121D01*
X163855889Y-76438932D01*
X163765946Y-76365117D01*
X163724388Y-76331012D01*
X163616469Y-76199512D01*
X163616467Y-76199509D01*
X163536279Y-76049488D01*
X163523429Y-76007127D01*
X163486896Y-75886695D01*
X163478565Y-75802112D01*
X163474400Y-75759821D01*
X163474400Y-75370180D01*
X163486896Y-75243308D01*
X163486896Y-75243306D01*
X163536278Y-75080517D01*
X163536279Y-75080513D01*
X163616468Y-74930488D01*
X163724388Y-74798988D01*
X163855888Y-74691068D01*
X164005912Y-74610879D01*
X164048273Y-74598029D01*
X164168705Y-74561496D01*
X164281568Y-74550380D01*
X164337999Y-74544822D01*
X164338000Y-74544822D01*
X164507294Y-74561496D01*
X164507294Y-74561496D01*
G37*
G36*
X161967294Y-74561496D02*
X162087726Y-74598029D01*
X162130087Y-74610879D01*
X162280112Y-74691068D01*
X162411612Y-74798988D01*
X162519532Y-74930488D01*
X162599721Y-75080512D01*
X162602745Y-75090480D01*
X162649104Y-75243305D01*
X162649104Y-75243307D01*
X162661600Y-75370179D01*
X162661600Y-75759820D01*
X162661076Y-75765136D01*
X162649104Y-75886694D01*
X162647538Y-75891855D01*
X162599721Y-76049488D01*
X162519532Y-76199512D01*
X162411612Y-76331012D01*
X162280112Y-76438932D01*
X162130088Y-76519121D01*
X162102433Y-76527510D01*
X161967295Y-76568504D01*
X161854432Y-76579620D01*
X161798001Y-76585178D01*
X161798000Y-76585178D01*
X161628706Y-76568504D01*
X161493568Y-76527510D01*
X161465913Y-76519121D01*
X161315889Y-76438932D01*
X161225946Y-76365117D01*
X161184388Y-76331012D01*
X161076469Y-76199512D01*
X161076467Y-76199509D01*
X160996279Y-76049488D01*
X160983429Y-76007127D01*
X160946896Y-75886695D01*
X160938565Y-75802112D01*
X160934400Y-75759821D01*
X160934400Y-75370180D01*
X160946896Y-75243308D01*
X160946896Y-75243306D01*
X160996278Y-75080517D01*
X160996279Y-75080513D01*
X161076468Y-74930488D01*
X161184388Y-74798988D01*
X161315888Y-74691068D01*
X161465912Y-74610879D01*
X161508273Y-74598029D01*
X161628705Y-74561496D01*
X161741568Y-74550380D01*
X161797999Y-74544822D01*
X161798000Y-74544822D01*
X161967294Y-74561496D01*
X161967294Y-74561496D01*
G37*
G36*
X132503294Y-74561496D02*
X132623726Y-74598029D01*
X132666087Y-74610879D01*
X132816112Y-74691068D01*
X132947612Y-74798988D01*
X133055532Y-74930488D01*
X133135721Y-75080512D01*
X133138745Y-75090480D01*
X133185104Y-75243305D01*
X133185104Y-75243307D01*
X133197600Y-75370179D01*
X133197600Y-75759820D01*
X133197076Y-75765136D01*
X133185104Y-75886694D01*
X133183538Y-75891855D01*
X133135721Y-76049488D01*
X133055532Y-76199512D01*
X132947612Y-76331012D01*
X132816112Y-76438932D01*
X132666088Y-76519121D01*
X132638433Y-76527510D01*
X132503295Y-76568504D01*
X132390432Y-76579620D01*
X132334001Y-76585178D01*
X132334000Y-76585178D01*
X132164706Y-76568504D01*
X132029568Y-76527510D01*
X132001913Y-76519121D01*
X131851889Y-76438932D01*
X131761946Y-76365117D01*
X131720388Y-76331012D01*
X131612469Y-76199512D01*
X131612467Y-76199509D01*
X131532279Y-76049488D01*
X131519429Y-76007127D01*
X131482896Y-75886695D01*
X131474565Y-75802112D01*
X131470400Y-75759821D01*
X131470400Y-75370180D01*
X131482896Y-75243308D01*
X131482896Y-75243306D01*
X131532278Y-75080517D01*
X131532279Y-75080513D01*
X131612468Y-74930488D01*
X131720388Y-74798988D01*
X131851888Y-74691068D01*
X132001912Y-74610879D01*
X132044273Y-74598029D01*
X132164705Y-74561496D01*
X132277568Y-74550380D01*
X132333999Y-74544822D01*
X132334000Y-74544822D01*
X132503294Y-74561496D01*
X132503294Y-74561496D01*
G37*
G36*
X159427294Y-74561496D02*
X159547726Y-74598029D01*
X159590087Y-74610879D01*
X159740112Y-74691068D01*
X159871612Y-74798988D01*
X159979532Y-74930488D01*
X160059721Y-75080512D01*
X160062745Y-75090480D01*
X160109104Y-75243305D01*
X160109104Y-75243307D01*
X160121600Y-75370179D01*
X160121600Y-75759820D01*
X160121076Y-75765136D01*
X160109104Y-75886694D01*
X160107538Y-75891855D01*
X160059721Y-76049488D01*
X159979532Y-76199512D01*
X159871612Y-76331012D01*
X159740112Y-76438932D01*
X159590088Y-76519121D01*
X159562433Y-76527510D01*
X159427295Y-76568504D01*
X159314432Y-76579620D01*
X159258001Y-76585178D01*
X159258000Y-76585178D01*
X159088706Y-76568504D01*
X158953568Y-76527510D01*
X158925913Y-76519121D01*
X158775889Y-76438932D01*
X158685946Y-76365117D01*
X158644388Y-76331012D01*
X158536469Y-76199512D01*
X158536467Y-76199509D01*
X158456279Y-76049488D01*
X158443429Y-76007127D01*
X158406896Y-75886695D01*
X158398565Y-75802112D01*
X158394400Y-75759821D01*
X158394400Y-75370180D01*
X158406896Y-75243308D01*
X158406896Y-75243306D01*
X158456278Y-75080517D01*
X158456279Y-75080513D01*
X158536468Y-74930488D01*
X158644388Y-74798988D01*
X158775888Y-74691068D01*
X158925912Y-74610879D01*
X158968273Y-74598029D01*
X159088705Y-74561496D01*
X159201568Y-74550380D01*
X159257999Y-74544822D01*
X159258000Y-74544822D01*
X159427294Y-74561496D01*
X159427294Y-74561496D01*
G37*
G36*
X156887294Y-74561496D02*
X157007726Y-74598029D01*
X157050087Y-74610879D01*
X157200112Y-74691068D01*
X157331612Y-74798988D01*
X157439532Y-74930488D01*
X157519721Y-75080512D01*
X157522745Y-75090480D01*
X157569104Y-75243305D01*
X157569104Y-75243307D01*
X157581600Y-75370179D01*
X157581600Y-75759820D01*
X157581076Y-75765136D01*
X157569104Y-75886694D01*
X157567538Y-75891855D01*
X157519721Y-76049488D01*
X157439532Y-76199512D01*
X157331612Y-76331012D01*
X157200112Y-76438932D01*
X157050088Y-76519121D01*
X157022433Y-76527510D01*
X156887295Y-76568504D01*
X156774432Y-76579620D01*
X156718001Y-76585178D01*
X156718000Y-76585178D01*
X156548706Y-76568504D01*
X156413568Y-76527510D01*
X156385913Y-76519121D01*
X156235889Y-76438932D01*
X156145946Y-76365117D01*
X156104388Y-76331012D01*
X155996469Y-76199512D01*
X155996467Y-76199509D01*
X155916279Y-76049488D01*
X155903429Y-76007127D01*
X155866896Y-75886695D01*
X155858565Y-75802112D01*
X155854400Y-75759821D01*
X155854400Y-75370180D01*
X155866896Y-75243308D01*
X155866896Y-75243306D01*
X155916278Y-75080517D01*
X155916279Y-75080513D01*
X155996468Y-74930488D01*
X156104388Y-74798988D01*
X156235888Y-74691068D01*
X156385912Y-74610879D01*
X156428273Y-74598029D01*
X156548705Y-74561496D01*
X156661568Y-74550380D01*
X156717999Y-74544822D01*
X156718000Y-74544822D01*
X156887294Y-74561496D01*
X156887294Y-74561496D01*
G37*
G36*
X169587294Y-74561496D02*
X169707726Y-74598029D01*
X169750087Y-74610879D01*
X169900112Y-74691068D01*
X170031612Y-74798988D01*
X170139532Y-74930488D01*
X170219721Y-75080512D01*
X170222745Y-75090480D01*
X170269104Y-75243305D01*
X170269104Y-75243307D01*
X170281600Y-75370179D01*
X170281600Y-75759820D01*
X170281076Y-75765136D01*
X170269104Y-75886694D01*
X170267538Y-75891855D01*
X170219721Y-76049488D01*
X170139532Y-76199512D01*
X170031612Y-76331012D01*
X169900112Y-76438932D01*
X169750088Y-76519121D01*
X169722433Y-76527510D01*
X169587295Y-76568504D01*
X169474432Y-76579620D01*
X169418001Y-76585178D01*
X169418000Y-76585178D01*
X169248706Y-76568504D01*
X169113568Y-76527510D01*
X169085913Y-76519121D01*
X168935889Y-76438932D01*
X168845946Y-76365117D01*
X168804388Y-76331012D01*
X168696469Y-76199512D01*
X168696467Y-76199509D01*
X168616279Y-76049488D01*
X168603429Y-76007127D01*
X168566896Y-75886695D01*
X168558565Y-75802112D01*
X168554400Y-75759821D01*
X168554400Y-75370180D01*
X168566896Y-75243308D01*
X168566896Y-75243306D01*
X168616278Y-75080517D01*
X168616279Y-75080513D01*
X168696468Y-74930488D01*
X168804388Y-74798988D01*
X168935888Y-74691068D01*
X169085912Y-74610879D01*
X169128273Y-74598029D01*
X169248705Y-74561496D01*
X169361568Y-74550380D01*
X169417999Y-74544822D01*
X169418000Y-74544822D01*
X169587294Y-74561496D01*
X169587294Y-74561496D01*
G37*
G36*
X114388000Y-76415000D02*
X112688000Y-76415000D01*
X112688000Y-74715000D01*
X114388000Y-74715000D01*
X114388000Y-76415000D01*
X114388000Y-76415000D01*
G37*
G36*
X116244630Y-74727299D02*
X116404855Y-74775903D01*
X116552520Y-74854831D01*
X116681949Y-74961051D01*
X116788169Y-75090480D01*
X116867097Y-75238145D01*
X116915701Y-75398370D01*
X116932112Y-75565000D01*
X116915701Y-75731630D01*
X116867097Y-75891855D01*
X116788169Y-76039520D01*
X116681949Y-76168949D01*
X116552520Y-76275169D01*
X116404855Y-76354097D01*
X116244630Y-76402701D01*
X116119752Y-76415000D01*
X116036248Y-76415000D01*
X115911370Y-76402701D01*
X115751145Y-76354097D01*
X115603480Y-76275169D01*
X115474051Y-76168949D01*
X115367831Y-76039520D01*
X115288903Y-75891855D01*
X115240299Y-75731630D01*
X115223888Y-75565000D01*
X115240299Y-75398370D01*
X115288903Y-75238145D01*
X115367831Y-75090480D01*
X115474051Y-74961051D01*
X115603480Y-74854831D01*
X115751145Y-74775903D01*
X115911370Y-74727299D01*
X116036248Y-74715000D01*
X116119752Y-74715000D01*
X116244630Y-74727299D01*
X116244630Y-74727299D01*
G37*
G36*
X121324630Y-74727299D02*
X121484855Y-74775903D01*
X121632520Y-74854831D01*
X121761949Y-74961051D01*
X121868169Y-75090480D01*
X121947097Y-75238145D01*
X121995701Y-75398370D01*
X122012112Y-75565000D01*
X121995701Y-75731630D01*
X121947097Y-75891855D01*
X121868169Y-76039520D01*
X121761949Y-76168949D01*
X121632520Y-76275169D01*
X121484855Y-76354097D01*
X121324630Y-76402701D01*
X121199752Y-76415000D01*
X121116248Y-76415000D01*
X120991370Y-76402701D01*
X120831145Y-76354097D01*
X120683480Y-76275169D01*
X120554051Y-76168949D01*
X120447831Y-76039520D01*
X120368903Y-75891855D01*
X120320299Y-75731630D01*
X120303888Y-75565000D01*
X120320299Y-75398370D01*
X120368903Y-75238145D01*
X120447831Y-75090480D01*
X120554051Y-74961051D01*
X120683480Y-74854831D01*
X120831145Y-74775903D01*
X120991370Y-74727299D01*
X121116248Y-74715000D01*
X121199752Y-74715000D01*
X121324630Y-74727299D01*
X121324630Y-74727299D01*
G37*
G36*
X118784630Y-74727299D02*
X118944855Y-74775903D01*
X119092520Y-74854831D01*
X119221949Y-74961051D01*
X119328169Y-75090480D01*
X119407097Y-75238145D01*
X119455701Y-75398370D01*
X119472112Y-75565000D01*
X119455701Y-75731630D01*
X119407097Y-75891855D01*
X119328169Y-76039520D01*
X119221949Y-76168949D01*
X119092520Y-76275169D01*
X118944855Y-76354097D01*
X118784630Y-76402701D01*
X118659752Y-76415000D01*
X118576248Y-76415000D01*
X118451370Y-76402701D01*
X118291145Y-76354097D01*
X118143480Y-76275169D01*
X118014051Y-76168949D01*
X117907831Y-76039520D01*
X117828903Y-75891855D01*
X117780299Y-75731630D01*
X117763888Y-75565000D01*
X117780299Y-75398370D01*
X117828903Y-75238145D01*
X117907831Y-75090480D01*
X118014051Y-74961051D01*
X118143480Y-74854831D01*
X118291145Y-74775903D01*
X118451370Y-74727299D01*
X118576248Y-74715000D01*
X118659752Y-74715000D01*
X118784630Y-74727299D01*
X118784630Y-74727299D01*
G37*
M02*
