G04 #@! TF.GenerationSoftware,KiCad,Pcbnew,5.0.2-bee76a0~70~ubuntu18.04.1*
G04 #@! TF.CreationDate,2019-09-13T20:40:02+02:00*
G04 #@! TF.ProjectId,BIOS_Shield_1.0_Migration,42494f53-5f53-4686-9965-6c645f312e30,rev?*
G04 #@! TF.SameCoordinates,Original*
G04 #@! TF.FileFunction,Copper,L1,Top*
G04 #@! TF.FilePolarity,Positive*
%FSLAX46Y46*%
G04 Gerber Fmt 4.6, Leading zero omitted, Abs format (unit mm)*
G04 Created by KiCad (PCBNEW 5.0.2-bee76a0~70~ubuntu18.04.1) date vie 13 sep 2019 20:40:02 CEST*
%MOMM*%
%LPD*%
G01*
G04 APERTURE LIST*
G04 #@! TA.AperFunction,ComponentPad*
%ADD10C,1.800000*%
G04 #@! TD*
G04 #@! TA.AperFunction,ComponentPad*
%ADD11R,1.800000X1.800000*%
G04 #@! TD*
G04 #@! TA.AperFunction,ComponentPad*
%ADD12O,1.727200X2.032000*%
G04 #@! TD*
G04 #@! TA.AperFunction,ComponentPad*
%ADD13O,1.700000X1.700000*%
G04 #@! TD*
G04 #@! TA.AperFunction,ComponentPad*
%ADD14R,1.700000X1.700000*%
G04 #@! TD*
G04 #@! TA.AperFunction,ComponentPad*
%ADD15C,2.000000*%
G04 #@! TD*
G04 #@! TA.AperFunction,ComponentPad*
%ADD16C,4.064000*%
G04 #@! TD*
G04 #@! TA.AperFunction,ComponentPad*
%ADD17O,1.400000X1.400000*%
G04 #@! TD*
G04 #@! TA.AperFunction,ComponentPad*
%ADD18C,1.400000*%
G04 #@! TD*
G04 #@! TA.AperFunction,ComponentPad*
%ADD19R,2.000000X2.000000*%
G04 #@! TD*
G04 #@! TA.AperFunction,ComponentPad*
%ADD20C,3.000000*%
G04 #@! TD*
G04 #@! TA.AperFunction,ComponentPad*
%ADD21C,1.620000*%
G04 #@! TD*
G04 #@! TA.AperFunction,Conductor*
%ADD22C,0.508000*%
G04 #@! TD*
G04 #@! TA.AperFunction,Conductor*
%ADD23C,0.762000*%
G04 #@! TD*
G04 APERTURE END LIST*
D10*
G04 #@! TO.P,D1,2*
G04 #@! TO.N,/8*
X141478000Y-84455000D03*
D11*
G04 #@! TO.P,D1,1*
G04 #@! TO.N,Net-(D1-Pad1)*
X141478000Y-81915000D03*
G04 #@! TD*
G04 #@! TO.P,D2,1*
G04 #@! TO.N,Net-(D2-Pad1)*
X141478000Y-88265000D03*
D10*
G04 #@! TO.P,D2,2*
G04 #@! TO.N,/9(\002A\002A)*
X141478000Y-90805000D03*
G04 #@! TD*
G04 #@! TO.P,D3,2*
G04 #@! TO.N,/10(\002A\002A/SS)*
X141478000Y-97155000D03*
D11*
G04 #@! TO.P,D3,1*
G04 #@! TO.N,Net-(D3-Pad1)*
X141478000Y-94615000D03*
G04 #@! TD*
G04 #@! TO.P,D4,1*
G04 #@! TO.N,Net-(D4-Pad1)*
X141478000Y-100965000D03*
D10*
G04 #@! TO.P,D4,2*
G04 #@! TO.N,/11(\002A\002A/MOSI)*
X141478000Y-103505000D03*
G04 #@! TD*
D12*
G04 #@! TO.P,J1,1*
G04 #@! TO.N,Net-(J1-Pad1)*
X138938000Y-123825000D03*
G04 #@! TO.P,J1,2*
G04 #@! TO.N,+5V*
X141478000Y-123825000D03*
G04 #@! TO.P,J1,3*
G04 #@! TO.N,/Reset*
X144018000Y-123825000D03*
G04 #@! TO.P,J1,4*
G04 #@! TO.N,+3V3*
X146558000Y-123825000D03*
G04 #@! TO.P,J1,5*
G04 #@! TO.N,+5V*
X149098000Y-123825000D03*
G04 #@! TO.P,J1,6*
G04 #@! TO.N,GND*
X151638000Y-123825000D03*
G04 #@! TO.P,J1,7*
X154178000Y-123825000D03*
G04 #@! TO.P,J1,8*
G04 #@! TO.N,/Vin*
X156718000Y-123825000D03*
G04 #@! TD*
G04 #@! TO.P,J4,8*
G04 #@! TO.N,/0(Rx)*
X174498000Y-75565000D03*
G04 #@! TO.P,J4,7*
G04 #@! TO.N,/1(Tx)*
X171958000Y-75565000D03*
G04 #@! TO.P,J4,6*
G04 #@! TO.N,/2*
X169418000Y-75565000D03*
G04 #@! TO.P,J4,5*
G04 #@! TO.N,/3(\002A\002A)*
X166878000Y-75565000D03*
G04 #@! TO.P,J4,4*
G04 #@! TO.N,/4*
X164338000Y-75565000D03*
G04 #@! TO.P,J4,3*
G04 #@! TO.N,/5(\002A\002A)*
X161798000Y-75565000D03*
G04 #@! TO.P,J4,2*
G04 #@! TO.N,/6(\002A\002A)*
X159258000Y-75565000D03*
G04 #@! TO.P,J4,1*
G04 #@! TO.N,/7*
X156718000Y-75565000D03*
G04 #@! TD*
D13*
G04 #@! TO.P,J5,4*
G04 #@! TO.N,/A5(SCL)*
X121158000Y-75565000D03*
G04 #@! TO.P,J5,3*
G04 #@! TO.N,/A4(SDA)*
X118618000Y-75565000D03*
G04 #@! TO.P,J5,2*
G04 #@! TO.N,+5V*
X116078000Y-75565000D03*
D14*
G04 #@! TO.P,J5,1*
G04 #@! TO.N,GND*
X113538000Y-75565000D03*
G04 #@! TD*
G04 #@! TO.P,J6,1*
G04 #@! TO.N,/1(Tx)*
X170688000Y-89535000D03*
D13*
G04 #@! TO.P,J6,2*
G04 #@! TO.N,/0(Rx)*
X170688000Y-86995000D03*
G04 #@! TO.P,J6,3*
G04 #@! TO.N,GND*
X170688000Y-84455000D03*
G04 #@! TO.P,J6,4*
G04 #@! TO.N,+5V*
X170688000Y-81915000D03*
G04 #@! TD*
G04 #@! TO.P,J8,3*
G04 #@! TO.N,GND*
X154178000Y-100965000D03*
G04 #@! TO.P,J8,2*
G04 #@! TO.N,+5V*
X151638000Y-100965000D03*
D14*
G04 #@! TO.P,J8,1*
G04 #@! TO.N,/6(\002A\002A)*
X149098000Y-100965000D03*
G04 #@! TD*
D13*
G04 #@! TO.P,J9,3*
G04 #@! TO.N,GND*
X164338000Y-97155000D03*
G04 #@! TO.P,J9,2*
G04 #@! TO.N,+5V*
X161798000Y-97155000D03*
D14*
G04 #@! TO.P,J9,1*
G04 #@! TO.N,/2*
X159258000Y-97155000D03*
G04 #@! TD*
D13*
G04 #@! TO.P,J10,3*
G04 #@! TO.N,GND*
X174498000Y-97155000D03*
G04 #@! TO.P,J10,2*
G04 #@! TO.N,+5V*
X171958000Y-97155000D03*
D14*
G04 #@! TO.P,J10,1*
G04 #@! TO.N,/A4(SDA)*
X169418000Y-97155000D03*
G04 #@! TD*
G04 #@! TO.P,J11,1*
G04 #@! TO.N,/3(\002A\002A)*
X159258000Y-102235000D03*
D13*
G04 #@! TO.P,J11,2*
G04 #@! TO.N,+5V*
X161798000Y-102235000D03*
G04 #@! TO.P,J11,3*
G04 #@! TO.N,GND*
X164338000Y-102235000D03*
G04 #@! TD*
D14*
G04 #@! TO.P,J12,1*
G04 #@! TO.N,/5(\002A\002A)*
X149098000Y-104775000D03*
D13*
G04 #@! TO.P,J12,2*
G04 #@! TO.N,+5V*
X151638000Y-104775000D03*
G04 #@! TO.P,J12,3*
G04 #@! TO.N,GND*
X154178000Y-104775000D03*
G04 #@! TD*
D14*
G04 #@! TO.P,J13,1*
G04 #@! TO.N,/7*
X149098000Y-97155000D03*
D13*
G04 #@! TO.P,J13,2*
G04 #@! TO.N,+5V*
X151638000Y-97155000D03*
G04 #@! TO.P,J13,3*
G04 #@! TO.N,GND*
X154178000Y-97155000D03*
G04 #@! TD*
D14*
G04 #@! TO.P,LM35,1*
G04 #@! TO.N,+5V*
X169418000Y-102235000D03*
D13*
G04 #@! TO.P,LM35,2*
G04 #@! TO.N,/A5(SCL)*
X171958000Y-102235000D03*
G04 #@! TO.P,LM35,3*
G04 #@! TO.N,GND*
X174498000Y-102235000D03*
G04 #@! TD*
D12*
G04 #@! TO.P,J2,1*
G04 #@! TO.N,/A0*
X161798000Y-123825000D03*
G04 #@! TO.P,J2,2*
G04 #@! TO.N,/A1*
X164338000Y-123825000D03*
G04 #@! TO.P,J2,3*
G04 #@! TO.N,/A2*
X166878000Y-123825000D03*
G04 #@! TO.P,J2,4*
G04 #@! TO.N,/A3*
X169418000Y-123825000D03*
G04 #@! TO.P,J2,5*
G04 #@! TO.N,/A4(SDA)*
X171958000Y-123825000D03*
G04 #@! TO.P,J2,6*
G04 #@! TO.N,/A5(SCL)*
X174498000Y-123825000D03*
G04 #@! TD*
G04 #@! TO.P,J3,1*
G04 #@! TO.N,/A5(SCL)*
X129794000Y-75565000D03*
G04 #@! TO.P,J3,2*
G04 #@! TO.N,/A4(SDA)*
X132334000Y-75565000D03*
G04 #@! TO.P,J3,3*
G04 #@! TO.N,/AREF*
X134874000Y-75565000D03*
G04 #@! TO.P,J3,4*
G04 #@! TO.N,GND*
X137414000Y-75565000D03*
G04 #@! TO.P,J3,5*
G04 #@! TO.N,/13(SCK)*
X139954000Y-75565000D03*
G04 #@! TO.P,J3,6*
G04 #@! TO.N,/12(MISO)*
X142494000Y-75565000D03*
G04 #@! TO.P,J3,7*
G04 #@! TO.N,/11(\002A\002A/MOSI)*
X145034000Y-75565000D03*
G04 #@! TO.P,J3,8*
G04 #@! TO.N,/10(\002A\002A/SS)*
X147574000Y-75565000D03*
G04 #@! TO.P,J3,9*
G04 #@! TO.N,/9(\002A\002A)*
X150114000Y-75565000D03*
G04 #@! TO.P,J3,10*
G04 #@! TO.N,/8*
X152654000Y-75565000D03*
G04 #@! TD*
D15*
G04 #@! TO.P,P1,2*
G04 #@! TO.N,/A1*
X153598000Y-116205000D03*
G04 #@! TO.P,P1,1*
G04 #@! TO.N,+5V*
X149098000Y-116205000D03*
G04 #@! TO.P,P1,2*
G04 #@! TO.N,/A1*
X153598000Y-109705000D03*
G04 #@! TO.P,P1,1*
G04 #@! TO.N,+5V*
X149098000Y-109705000D03*
G04 #@! TD*
G04 #@! TO.P,P2,1*
G04 #@! TO.N,+5V*
X157988000Y-109705000D03*
G04 #@! TO.P,P2,2*
G04 #@! TO.N,/A2*
X162488000Y-109705000D03*
G04 #@! TO.P,P2,1*
G04 #@! TO.N,+5V*
X157988000Y-116205000D03*
G04 #@! TO.P,P2,2*
G04 #@! TO.N,/A2*
X162488000Y-116205000D03*
G04 #@! TD*
G04 #@! TO.P,P3,2*
G04 #@! TO.N,/A3*
X171378000Y-116205000D03*
G04 #@! TO.P,P3,1*
G04 #@! TO.N,+5V*
X166878000Y-116205000D03*
G04 #@! TO.P,P3,2*
G04 #@! TO.N,/A3*
X171378000Y-109705000D03*
G04 #@! TO.P,P3,1*
G04 #@! TO.N,+5V*
X166878000Y-109705000D03*
G04 #@! TD*
D16*
G04 #@! TO.P,P5,1*
G04 #@! TO.N,Net-(P5-Pad1)*
X124968000Y-123825000D03*
G04 #@! TD*
G04 #@! TO.P,P6,1*
G04 #@! TO.N,Net-(P6-Pad1)*
X177038000Y-118745000D03*
G04 #@! TD*
G04 #@! TO.P,P7,1*
G04 #@! TO.N,Net-(P7-Pad1)*
X126238000Y-75565000D03*
G04 #@! TD*
G04 #@! TO.P,P8,1*
G04 #@! TO.N,Net-(P8-Pad1)*
X177038000Y-90805000D03*
G04 #@! TD*
D17*
G04 #@! TO.P,R1,2*
G04 #@! TO.N,/A1*
X156718000Y-120015000D03*
D18*
G04 #@! TO.P,R1,1*
G04 #@! TO.N,GND*
X149098000Y-120015000D03*
G04 #@! TD*
G04 #@! TO.P,R2,1*
G04 #@! TO.N,GND*
X177038000Y-107315000D03*
D17*
G04 #@! TO.P,R2,2*
G04 #@! TO.N,/A2*
X177038000Y-114935000D03*
G04 #@! TD*
G04 #@! TO.P,R3,2*
G04 #@! TO.N,/A3*
X168148000Y-120015000D03*
D18*
G04 #@! TO.P,R3,1*
G04 #@! TO.N,GND*
X160528000Y-120015000D03*
G04 #@! TD*
G04 #@! TO.P,R4,1*
G04 #@! TO.N,Net-(D1-Pad1)*
X132588000Y-90805000D03*
D17*
G04 #@! TO.P,R4,2*
G04 #@! TO.N,GND*
X124968000Y-90805000D03*
G04 #@! TD*
G04 #@! TO.P,R5,2*
G04 #@! TO.N,GND*
X124968000Y-94615000D03*
D18*
G04 #@! TO.P,R5,1*
G04 #@! TO.N,Net-(D2-Pad1)*
X132588000Y-94615000D03*
G04 #@! TD*
G04 #@! TO.P,R6,1*
G04 #@! TO.N,Net-(D3-Pad1)*
X132588000Y-98425000D03*
D17*
G04 #@! TO.P,R6,2*
G04 #@! TO.N,GND*
X124968000Y-98425000D03*
G04 #@! TD*
D18*
G04 #@! TO.P,R7,1*
G04 #@! TO.N,Net-(D4-Pad1)*
X132588000Y-102235000D03*
D17*
G04 #@! TO.P,R7,2*
G04 #@! TO.N,GND*
X124968000Y-102235000D03*
G04 #@! TD*
D19*
G04 #@! TO.P,SPK,1*
G04 #@! TO.N,/4*
X161798000Y-85725000D03*
D15*
G04 #@! TO.P,SPK,2*
G04 #@! TO.N,GND*
X154198000Y-85725000D03*
G04 #@! TD*
G04 #@! TO.P,J7,1*
G04 #@! TO.N,GND*
X128143000Y-83820000D03*
G04 #@! TO.P,J7,2*
G04 #@! TO.N,+5V*
X125603000Y-83820000D03*
G04 #@! TO.P,J7,3*
G04 #@! TO.N,/13(SCK)*
X123063000Y-83820000D03*
G04 #@! TO.P,J7,4*
G04 #@! TO.N,/12(MISO)*
X120523000Y-83820000D03*
D20*
G04 #@! TO.P,J7,5*
G04 #@! TO.N,N/C*
X114173000Y-82550000D03*
X133858000Y-82550000D03*
G04 #@! TD*
D21*
G04 #@! TO.P,POT,3*
G04 #@! TO.N,GND*
X140208000Y-111205000D03*
G04 #@! TO.P,POT,2*
G04 #@! TO.N,/A0*
X145208000Y-113705000D03*
G04 #@! TO.P,POT,1*
G04 #@! TO.N,+5V*
X140208000Y-116205000D03*
G04 #@! TD*
D22*
G04 #@! TO.N,+5V*
X169418000Y-107165000D02*
X166878000Y-109705000D01*
X169418000Y-103505000D02*
X169418000Y-107165000D01*
X166878000Y-109705000D02*
X166878000Y-111125000D01*
X166878000Y-111125000D02*
X165608000Y-112395000D01*
X165608000Y-112395000D02*
X159258000Y-112395000D01*
X157988000Y-111125000D02*
X157988000Y-109705000D01*
X159258000Y-112395000D02*
X157988000Y-111125000D01*
X169418000Y-103505000D02*
X169418000Y-102235000D01*
X151638000Y-97155000D02*
X151638000Y-100965000D01*
D23*
G04 #@! TO.N,GND*
X173228000Y-99695000D02*
X174498000Y-98425000D01*
X174498000Y-98425000D02*
X174498000Y-97155000D01*
X169440798Y-99695000D02*
X173228000Y-99695000D01*
X154178000Y-97155000D02*
X154178000Y-100965000D01*
X166878000Y-99695000D02*
X164338000Y-102235000D01*
X169440798Y-99695000D02*
X166878000Y-99695000D01*
X164338000Y-102235000D02*
X164338000Y-104775000D01*
X164338000Y-104775000D02*
X154178000Y-104775000D01*
X154178000Y-123672600D02*
X154178000Y-123825000D01*
X155930600Y-121920000D02*
X154178000Y-123672600D01*
X160528000Y-120015000D02*
X160528000Y-121920000D01*
X160528000Y-121920000D02*
X155930600Y-121920000D01*
X151003000Y-121920000D02*
X149098000Y-120015000D01*
X154178000Y-123825000D02*
X152273000Y-121920000D01*
X152273000Y-121920000D02*
X151003000Y-121920000D01*
X128143000Y-87630000D02*
X128143000Y-83820000D01*
X124968000Y-90805000D02*
X128143000Y-87630000D01*
D22*
G04 #@! TO.N,/A0*
X159298000Y-113705000D02*
X145208000Y-113705000D01*
X160528000Y-114935000D02*
X159298000Y-113705000D01*
X160528000Y-117475000D02*
X160528000Y-114935000D01*
X162433000Y-119380000D02*
X160528000Y-117475000D01*
X161798000Y-123825000D02*
X162433000Y-123190000D01*
X162433000Y-123190000D02*
X162433000Y-119380000D01*
G04 #@! TO.N,/A2*
X166878000Y-123672600D02*
X166878000Y-123825000D01*
X170053000Y-118110000D02*
X170053000Y-120650000D01*
X173228000Y-118110000D02*
X170053000Y-118110000D01*
X170053000Y-120650000D02*
X166878000Y-123825000D01*
X177038000Y-114935000D02*
X176403000Y-114935000D01*
X176403000Y-114935000D02*
X173228000Y-118110000D01*
G04 #@! TO.N,/A4(SDA)*
X132334000Y-75412600D02*
X132334000Y-75565000D01*
X133705600Y-74041000D02*
X132334000Y-75412600D01*
X154813000Y-75708219D02*
X153145781Y-74041000D01*
X153145781Y-74041000D02*
X133705600Y-74041000D01*
X169418000Y-97155000D02*
X154813000Y-82550000D01*
X154813000Y-82550000D02*
X154813000Y-75708219D01*
G04 #@! TO.N,/A5(SCL)*
X172872400Y-125603000D02*
X174498000Y-123977400D01*
X129794000Y-77851000D02*
X131318000Y-79375000D01*
X129794000Y-75565000D02*
X129794000Y-77851000D01*
X135128000Y-79375000D02*
X136398000Y-80645000D01*
X174498000Y-123977400D02*
X174498000Y-123825000D01*
X136398000Y-80645000D02*
X136398000Y-125603000D01*
X131318000Y-79375000D02*
X135128000Y-79375000D01*
X136398000Y-125603000D02*
X172872400Y-125603000D01*
G04 #@! TO.N,/10(\002A\002A/SS)*
X147574000Y-78359000D02*
X147574000Y-75565000D01*
X138938000Y-80645000D02*
X140208000Y-79375000D01*
X146558000Y-79375000D02*
X147574000Y-78359000D01*
X141478000Y-97155000D02*
X138938000Y-97155000D01*
X140208000Y-79375000D02*
X146558000Y-79375000D01*
X138938000Y-97155000D02*
X138938000Y-80645000D01*
G04 #@! TO.N,/11(\002A\002A/MOSI)*
X141478000Y-103505000D02*
X138938000Y-103505000D01*
X138938000Y-103505000D02*
X137668000Y-102235000D01*
X137668000Y-102235000D02*
X137668000Y-80645000D01*
X137668000Y-80645000D02*
X140208000Y-78105000D01*
X140208000Y-78105000D02*
X144018000Y-78105000D01*
X145034000Y-77089000D02*
X145034000Y-75565000D01*
X144018000Y-78105000D02*
X145034000Y-77089000D01*
G04 #@! TD*
M02*
